<svg width="269" height="266" fill="none" xmlns="http://www.w3.org/2000/svg"><path opacity=".5" d="M242.85 50.8c-4.1-5.62-39.2-52.15-96.12-49.88-2.84.11-58.34 3.05-78.81 39.52-15.15 26.98.89 50.92-17.59 69.3-16.1 16.02-35.88 5.41-45.77 18.36-15.07 19.73 8.92 73.02 45.8 102.73 38.07 30.69 110.9 53.2 167.5 12.26 63.56-45.96 62.92-140.26 25-192.29Z" fill="url(#a)" fill-opacity=".5"/><g style="mix-blend-mode:soft-light"><g style="mix-blend-mode:soft-light"><path d="M65.69 168.49c-5.29 0-10.57-.36-15.81-1.05l.06-.46c33.98 4.43 55.8-6.7 58.2-7.98-11.95-18.62-3.5-46-3.42-46.27l.45.14c-.09.27-8.52 27.66 3.5 46.08l.13.2-.21.13c-.2.11-16.23 9.2-42.9 9.2Z" fill="#fff"/></g></g><path d="M86.68 144.7a1.33 1.33 0 0 1-1.32-1.2c-1.17-12.21-5.15-23.82-11.22-32.67-5.37-7.85-11.77-12.54-17.12-12.54h-.01c-19.47.04-23.55 44.75-23.59 45.2a1.33 1.33 0 0 1-2.65-.22c.17-1.94 4.34-47.59 26.23-47.63h.02c6.32 0 13.36 4.99 19.32 13.69 6.31 9.22 10.46 21.27 11.66 33.93a1.33 1.33 0 0 1-1.2 1.45h-.12Z" fill="url(#b)"/><path d="m5.56 236.71 25.63 12.98 15.53-47.66-25.59-63.9-7.26 1.78-11 91.76a4.98 4.98 0 0 0 2.69 5.04Z" fill="url(#c)"/><path style="mix-blend-mode:multiply" opacity=".52" d="m46.73 202.03-25.6-63.9-4.28 1.06a139.1 139.1 0 0 0 .07 20.66c1.72 21.75 7.41 27.8 4.66 42.98-2.3 12.62-7.3 14.33-6.87 22.82.48 9.25 6.93 16.99 14.6 23.08l1.88.96 15.54-47.66Z" fill="url(#d)"/><path d="M21.13 138.14h95.57l31.63 102.11L31.2 249.7 21.13 138.14Z" fill="url(#e)"/><path d="M50.74 146.89a1.32 1.32 0 0 1-1.3-1.03c-.27-1.15-6.55-28.51 2.3-41.94a15.43 15.43 0 0 1 10.54-6.99c22.9-4.03 36.98 45.13 37.57 47.22a1.33 1.33 0 1 1-2.56.72c-.14-.48-14-48.95-34.55-45.32a12.7 12.7 0 0 0-8.77 5.83c-8.24 12.48-2 39.6-1.94 39.88a1.33 1.33 0 0 1-1.3 1.63Z" fill="url(#f)"/><g style="mix-blend-mode:multiply" opacity=".3"><path style="mix-blend-mode:multiply" opacity=".3" d="M116.7 138.13H69.3c-2.35 2.38-4 5.12-4.17 8.2-.74 14.45 32.47 19.2 35.68 39 2.3 14.28-11.91 30.76-24.6 38.1-13.36 7.74-22.42 3.82-31.46 12.4-3.97 3.78-6.39 8.5-7.83 13.4l111.42-8.98-31.64-102.12Z" fill="url(#g)"/></g><path d="M54.42 147.7a3.71 3.71 0 1 0-7.34-1.2 3.71 3.71 0 0 0 7.34 1.2Z" fill="url(#h)"/><path d="M103.41 146.88a3.73 3.73 0 1 0-7.35-1.19 3.73 3.73 0 0 0 7.35 1.2Z" fill="url(#i)"/><path d="M186.87 32.22c8.3 70.16 16.6 139.59 24.9 208.29a5.32 5.32 0 0 1-4.73 6.06c-33.36 3.16-66.73 6.4-100.09 9.7-5.95.29-9.22-3.04-9.6-6.37C88.8 175.74 80.26 100.8 71.7 25.1c-.38-3.4 2.5-6.33 8.45-6.04 33.53 2.4 67.06 4.76 100.59 7.08 3 .2 5.75 2.94 6.12 6.09Z" fill="#26264F"/><path d="M191.5 32.07c8.36 70.47 16.72 140.2 25.07 209.19a5.35 5.35 0 0 1-4.76 6.08c-34.65 2.94-69.3 5.93-103.94 8.98-3.16.28-6.06-2.22-6.45-5.57-8.6-74.5-17.2-149.79-25.8-225.86-.39-3.42 1.9-6.04 5.09-5.82 34.88 2.33 69.76 4.62 104.63 6.9 3.02.2 5.8 2.94 6.17 6.1Z" fill="url(#j)"/><path d="M189.5 43.6c7.73 65.29 15.47 129.94 23.2 193.96a4.98 4.98 0 0 1-4.44 5.68c-32.58 2.66-65.17 5.38-97.75 8.14-2.94.26-5.65-2.09-6.01-5.2-7.96-68.81-15.9-138.3-23.85-208.45-.36-3.18 1.77-5.63 4.73-5.46 32.79 1.91 65.57 3.8 98.36 5.67 2.82.16 5.4 2.71 5.75 5.66Z" fill="url(#k)"/><path d="M189.5 43.6c7.73 65.29 15.47 129.94 23.2 193.96a4.98 4.98 0 0 1-4.44 5.68c-32.58 2.66-65.17 5.38-97.75 8.14-2.94.26-5.65-2.09-6.01-5.2-7.96-68.81-15.9-138.3-23.85-208.45-.36-3.18 1.77-5.63 4.73-5.46 32.79 1.91 65.57 3.8 98.36 5.67 2.82.16 5.4 2.71 5.75 5.66Z" fill="url(#l)"/><g style="mix-blend-mode:multiply" opacity=".35"><path d="M183.74 37.94c-32.4-1.85-64.8-3.72-97.19-5.6 1.1 6.36 3 12.55 5.7 18.41 10.74 23.31 26.53 24.6 32.7 44.91 6.36 20.93-7.98 27.48-.98 46.38 7.61 20.5 26.27 17.54 36.13 40.03 8.5 19.39-2.44 28.25 6.35 40.03 9.63 12.91 27.45 8.54 45.95 12.91A84629.05 84629.05 0 0 1 189.5 43.6c-.35-2.95-2.94-5.5-5.76-5.66Z" fill="url(#m)"/></g><path d="M136.42 29.33c.14 1.14-.63 2-1.7 1.94-1.07-.06-2.05-1.04-2.19-2.18-.13-1.14.64-2.01 1.71-1.94 1.07.07 2.05 1.04 2.18 2.18Z" fill="#DE8BDF"/><path d="M148.13 92.43c4.14 0 7.5-3.96 7.5-8.85s-3.36-8.85-7.5-8.85c-4.15 0-7.5 3.96-7.5 8.85s3.35 8.85 7.5 8.85Z" fill="#DD51D4"/><path d="M148.13 92.43c4.14 0 7.5-3.96 7.5-8.85s-3.36-8.85-7.5-8.85c-4.15 0-7.5 3.96-7.5 8.85s3.35 8.85 7.5 8.85Z" fill="#000" fill-opacity=".2"/><path d="M177.97 92.43c4.15 0 7.5-3.96 7.5-8.85s-3.35-8.85-7.5-8.85c-4.14 0-7.5 3.96-7.5 8.85s3.36 8.85 7.5 8.85Z" fill="#DD51D4"/><path d="M177.97 92.43c4.15 0 7.5-3.96 7.5-8.85s-3.35-8.85-7.5-8.85c-4.14 0-7.5 3.96-7.5 8.85s3.36 8.85 7.5 8.85Z" fill="#000" fill-opacity=".2"/><path d="M162.97 92.43c4.2 0 7.6-3.96 7.6-8.85s-3.4-8.85-7.6-8.85c-4.2 0-7.6 3.96-7.6 8.85s3.4 8.85 7.6 8.85Z" fill="#D8DEE8"/><path d="M207.82 92.43c4.14 0 7.5-3.96 7.5-8.85s-3.36-8.85-7.5-8.85c-4.14 0-7.5 3.96-7.5 8.85s3.36 8.85 7.5 8.85Z" fill="#DD51D4"/><path d="M207.82 92.43c4.14 0 7.5-3.96 7.5-8.85s-3.36-8.85-7.5-8.85c-4.14 0-7.5 3.96-7.5 8.85s3.36 8.85 7.5 8.85Z" fill="#000" fill-opacity=".2"/><path d="M192.82 92.43c4.2 0 7.6-3.96 7.6-8.85s-3.4-8.85-7.6-8.85c-4.2 0-7.6 3.96-7.6 8.85s3.4 8.85 7.6 8.85ZM222.66 92.43c4.2 0 7.6-3.96 7.6-8.85s-3.4-8.85-7.6-8.85c-4.2 0-7.6 3.96-7.6 8.85s3.4 8.85 7.6 8.85ZM133.12 92.43c4.2 0 7.6-3.96 7.6-8.85s-3.4-8.85-7.6-8.85c-4.2 0-7.6 3.96-7.6 8.85s3.4 8.85 7.6 8.85Z" fill="#D8DEE8"/><path d="m79.15 31.4 46.53 53.38h120.09l-58.2-46.62L79.16 31.4Z" fill="url(#n)"/><path d="m79.15 31.4 46.53 53.38h120.09l-58.2-46.62L79.16 31.4Z" fill="#DD51D4"/><path d="m79.15 31.4 46.53 53.38h15.04l-49.06-52.6-12.51-.78ZM105.1 33.01l50.45 51.77h14.87l-51.78-50.92L105.1 33ZM132.28 34.7l53.04 50.08h14.93l-54.23-49.21-13.74-.86ZM173.82 37.3l-13.95-.87 55.35 48.35h15.01l-56.4-47.48Z" fill="#F4F7FA"/><path d="M230.25 84.78c.5 4.32 3.62 7.65 7.42 7.65s6.93-3.33 7.42-7.65h-14.84Z" fill="#DD51D4"/><path d="M230.25 84.78c.5 4.32 3.62 7.65 7.42 7.65s6.93-3.33 7.42-7.65h-14.84Z" fill="#000" fill-opacity=".2"/><path opacity=".63" d="M173.17 118.13c-6.5-14.97-22.97-22.24-36.8-16.24-13.84 6-19.78 23-13.29 37.97 6.5 14.97 22.98 22.24 36.8 16.23 13.84-6 19.78-23 13.29-37.96Zm-20.4 21.33.56 4.21-4.05.54-.52-3.93c-2.78.24-5.57-.15-7.26-.85l.6-5c1.87.72 4.42 1.27 7.11.91 2.36-.3 3.85-1.43 3.63-3.08-.2-1.57-1.66-2.4-4.85-3.02-4.62-.91-7.9-2.58-8.44-6.59-.48-3.64 1.71-6.83 6.02-8.28l-.51-3.92 4.05-.53.47 3.63c2.8-.24 4.73.1 6.18.58l-.58 4.83c-1.14-.32-3.17-1.02-6.14-.63-2.69.36-3.4 1.63-3.25 2.79.18 1.36 1.74 2.03 5.43 2.9 5.15 1.09 7.43 3.1 7.92 6.82.47 3.68-1.72 7.16-6.36 8.62Z" fill="#F4F7FA"/><g opacity=".63" fill="#F4F7FA"><path opacity=".63" d="m188 199.4-63.3 1.92a4.5 4.5 0 0 1-4.58-3.82l-2.57-16.88a4.5 4.5 0 0 1 4.35-5.18l63.37-1.47a4.5 4.5 0 0 1 4.56 3.83l2.5 16.43a4.5 4.5 0 0 1-4.32 5.17ZM190.13 213.28l-63.27 2.16a4.5 4.5 0 0 1-4.6-3.82l-.02-.16a4.49 4.49 0 0 1 4.3-5.18l63.3-2a4.5 4.5 0 0 1 4.6 3.82 4.5 4.5 0 0 1-4.3 5.18Z"/></g><defs><linearGradient id="a" x1="268.96" y1="26.07" x2="-59.04" y2="59.35" gradientUnits="userSpaceOnUse"><stop stop-color="#7C4EAB"/><stop offset="1" stop-color="#DD51D4"/></linearGradient><linearGradient id="b" x1="60970.5" y1="80159.1" x2="62425.6" y2="102222" gradientUnits="userSpaceOnUse"><stop stop-color="#E38DDD"/><stop offset="1" stop-color="#9571F6"/></linearGradient><linearGradient id="c" x1="-8.05" y1="152.31" x2="24.36" y2="206.65" gradientUnits="userSpaceOnUse"><stop stop-color="#FF9085"/><stop offset="1" stop-color="#FB6FBB"/></linearGradient><linearGradient id="d" x1="14305.7" y1="225067" x2="47427" y2="241022" gradientUnits="userSpaceOnUse"><stop stop-color="#FF9085"/><stop offset="1" stop-color="#FB6FBB"/></linearGradient><linearGradient id="e" x1="71208.2" y1="209681" x2="178805" y2="304216" gradientUnits="userSpaceOnUse"><stop stop-color="#FF9085"/><stop offset="1" stop-color="#FB6FBB"/></linearGradient><linearGradient id="f" x1="61423.6" y1="71789" x2="66005.2" y2="102561" gradientUnits="userSpaceOnUse"><stop stop-color="#E38DDD"/><stop offset="1" stop-color="#9571F6"/></linearGradient><linearGradient id="g" x1="110114" y1="250872" x2="214669" y2="331666" gradientUnits="userSpaceOnUse"><stop stop-color="#FF9085"/><stop offset="1" stop-color="#FB6FBB"/></linearGradient><linearGradient id="h" x1="7096.34" y1="14811" x2="7211.06" y2="14853.6" gradientUnits="userSpaceOnUse"><stop stop-color="#E38DDD"/><stop offset="1" stop-color="#9571F6"/></linearGradient><linearGradient id="i" x1="10897.4" y1="14818.1" x2="11012.5" y2="14860.7" gradientUnits="userSpaceOnUse"><stop stop-color="#E38DDD"/><stop offset="1" stop-color="#9571F6"/></linearGradient><linearGradient id="j" x1="92.57" y1="137.25" x2="299.42" y2="104.52" gradientUnits="userSpaceOnUse"><stop stop-color="#444B8C"/><stop offset="1" stop-color="#26264F"/></linearGradient><linearGradient id="k" x1="185.56" y1="56.95" x2="-18.14" y2="479.47" gradientUnits="userSpaceOnUse"><stop stop-color="#FFC444"/><stop offset="1" stop-color="#F36F56"/></linearGradient><linearGradient id="l" x1="212.75" y1="53.17" x2="50.54" y2="62.93" gradientUnits="userSpaceOnUse"><stop stop-color="#7C4EAB"/><stop offset="1" stop-color="#DD51D4"/></linearGradient><linearGradient id="m" x1="212.4" y1="51.68" x2="57.95" y2="61.25" gradientUnits="userSpaceOnUse"><stop stop-color="#7C4EAB"/><stop offset="1" stop-color="#DD51D4"/></linearGradient><linearGradient id="n" x1="146213" y1="36403" x2="432448" y2="36403" gradientUnits="userSpaceOnUse"><stop stop-color="#FF9085"/><stop offset="1" stop-color="#FB6FBB"/></linearGradient></defs></svg>