<svg width="270" height="270" fill="none" xmlns="http://www.w3.org/2000/svg"><path opacity=".5" d="M205.5 16.23c9.01 13.03-1.56 34.17 11.82 43.97 13.01 9.55 29-6.1 41.27 2.12 18.2 12.18 14.87 67.95-11.73 102.6-8 10.4-14.69 14.47-17.65 26.25-6.36 25.3 15.99 40.35 11.74 52.87-9.57 28.17-156.83 51.82-215.91-32.86-27.6-39.55-31.72-96.67-7.07-140.04C62.52-7.24 185.27-13.02 205.5 16.23Z" fill="url(#a)" fill-opacity=".5"/><path d="m0 236.97 263.59-1.96v5.8a3.19 3.19 0 0 1-2.7 3.15l-74.54 11.43a12 12 0 0 1-2.68.1L2.87 242.48A3.09 3.09 0 0 1 0 239.4v-2.42Z" fill="url(#b)"/><path d="m95.65 227.56 165.21 10.62c2.96.19 5.36-1.83 5.36-4.51V126.3c0-2.68-2.4-4.86-5.36-4.86H95.66a4.4 4.4 0 0 0-4.41 4.39v97.06a4.75 4.75 0 0 0 4.4 4.67Z" fill="url(#c)"/><path d="m93.02 227.56 165.2 10.62c2.96.19 5.37-1.83 5.37-4.51V126.3c0-2.68-2.4-4.86-5.36-4.86H93.02a4.4 4.4 0 0 0-4.4 4.39v97.06a4.75 4.75 0 0 0 4.4 4.67Z" fill="url(#d)"/><path d="m98.17 220.72 153.87 9.22c2.4.15 4.36-1.51 4.36-3.7v-94c0-2.2-1.95-3.98-4.36-3.99l-153.87-.58a3.6 3.6 0 0 0-3.64 3.6v85.62c0 2 1.63 3.71 3.64 3.83Z" fill="url(#e)"/><path d="M169.79 124.38c0 1 .85 1.8 1.9 1.81 1.05 0 1.9-.8 1.9-1.8s-.85-1.81-1.9-1.81c-1.05 0-1.9.8-1.9 1.8Z" fill="#fff"/><g style="mix-blend-mode:soft-light" opacity=".48"><path d="M132.82 198.12c12.74-6.24 22.75 1.66 32.42-6.13 5.86-4.72 2.98-8.24 10.2-15.3 7.98-7.81 13.18-5.19 21.2-12.22 10.15-8.9 5.07-15.82 13.81-22.2 10.6-7.75 22.04-.58 32.14-8.01 4.35-3.2 6.74-7.86 7.99-12.82h9.87c1.73 0 3.14 1.28 3.14 2.85v111.3c0 1.58-1.4 2.76-3.14 2.65L92.08 227.37a2.75 2.75 0 0 1-2.03-1.13c12.33-.4 19.9-4.16 24.74-8.04 9.47-7.6 7.82-15.09 18.03-20.08Z" fill="#fff"/></g><path d="m86.44 227.08 177.15 11.18-77.24 11.84c-.89.13-1.79.17-2.68.1L0 236.97l83.61-9.81c.94-.11 1.89-.14 2.83-.08Z" fill="url(#f)"/><path style="mix-blend-mode:multiply" opacity=".3" d="M237.74 238.54 90.25 229.1l-45.64 5.3 146.21 10.1 46.92-5.96Z" fill="url(#g)"/><path d="M17.68 81.12c-4.84.4-9.12-3.5-9.56-8.74-.44-5.23 3.12-9.8 7.96-10.21.25-.02.5-.02.74-.02a54.8 54.8 0 0 1 1.26-7.93c-.23-.09-.46-.19-.68-.3-4.41-2.27-6.33-7.94-4.3-12.68 2.04-4.73 7.26-6.74 11.67-4.47.23.11.45.25.66.38a50.41 50.41 0 0 1 4.77-6.12c-.16-.2-.32-.42-.46-.65-2.8-4.33-1.86-10.24 2.1-13.21 3.97-2.97 9.46-1.87 12.26 2.46l.4.68a44.57 44.57 0 0 1 6.99-2.68c-.04-.26-.08-.53-.1-.8-.45-5.23-1.4-11.14 3.44-11.47 11.2-.76 13.62 4.77 14.07 10l.03.8c2.48.3 4.94.78 7.34 1.48.09-.25.17-.5.28-.74 2.04-4.74 1.67-7.9 6.3-6.12 10.08 3.87 11.7 9.58 9.66 14.32-.1.25-.23.48-.35.72a50.4 50.4 0 0 1 5.72 5.23c.2-.17.39-.34.6-.5 3.96-2.96 9.44-1.86 12.24 2.47 2.8 4.33 1.86 10.25-2.11 13.22-.2.15-.41.28-.62.41 1.04 2.47 1.9 5.01 2.56 7.6.25-.04.5-.08.75-.1 4.83-.4 9.1 3.5 9.55 8.74.45 5.23-3.12 9.8-7.96 10.21-.25.03-.5.03-.74.03a54.7 54.7 0 0 1-1.26 7.92l.69.3c4.4 2.27 6.33 7.95 4.29 12.68-2.04 4.74-7.26 6.74-11.67 4.48a8.43 8.43 0 0 1-.66-.39 50.17 50.17 0 0 1-4.77 6.12c.16.21.32.42.47.65 2.8 4.33 1.85 10.25-2.12 13.22-3.96 2.97-12.55 1.6-15.35-2.72-.14-.22 2.83-.2 2.7-.42a44.52 44.52 0 0 1-6.99 2.67c.04.26.08.53.1.8.45 5.23-3.11 9.8-7.95 10.21-4.83.41-9.11-3.5-9.55-8.74-.02-.27-.03-.53-.03-.8a44.7 44.7 0 0 1-7.35-1.47c-.08.25-.17.5-.28.74-2.03 4.73-7.25 6.74-11.66 4.47-4.4-2.26-6.33-7.94-4.3-12.67.11-.25.23-.49.35-.72a50.37 50.37 0 0 1-5.72-5.23l-.6.49c-3.96 2.97-9.44 1.87-12.24-2.46-2.8-4.33-1.86-10.25 2.11-13.22.2-.15.41-.28.62-.41-1.04-2.47-1.9-5.01-2.56-7.6l-.74.1Zm49.7 20.92c17.56-1.48 30.5-18.08 28.89-37.08-1.6-19-17.13-33.2-34.69-31.73C44.03 34.71 31.1 51.31 32.7 70.31c1.6 19 17.13 33.21 34.68 31.73Z" fill="#BFC6D1"/><path d="M17.4 53.91c-4.4-2.26-6.33-7.93-4.3-12.67 2.04-4.74 7.27-6.74 11.67-4.48.23.12.45.26.67.4a50.33 50.33 0 0 1 4.77-6.13c-.16-.2-.32-.42-.47-.65-2.8-4.33-4.95-12.91-.7-15.46 8.07-4.83 12.27.38 15.06 4.7.15.23.27.46.4.69a44.52 44.52 0 0 1 7-2.68 9.82 9.82 0 0 1 2.3-8.19c1.07 8.19 2.08 16.38 3.02 24.58-15.06 3.8-25.57 19.05-24.12 36.29 1.23 14.6 10.7 26.37 22.98 30.36-.03 1.6-.07 3.2-.06 4.8.04 4.34.32 8.68.6 13.03-1.18-.25-2.36-.53-3.52-.87-.09.25-.17.5-.28.74-2.04 4.74-6.58 7.62-14.7 3.8-4.48-2.1-3.3-7.27-1.26-12 .1-.25.23-.49.35-.72a50.27 50.27 0 0 1-5.72-5.23c-.19.17-.39.33-.6.49-3.96 2.97-12.86 1.3-15.66-3.03-2.8-4.33 1.56-9.68 5.53-12.65.2-.15.41-.28.62-.42-1.04-2.46-1.9-5-2.57-7.6-.24.05-.48.08-.73.1-4.84.41-9.12-3.5-9.56-8.73-.44-5.24 3.12-9.81 7.96-10.22.25-.02.5-.02.74-.02a54.8 54.8 0 0 1 1.26-7.92 7.02 7.02 0 0 1-.68-.3Z" fill="#BFC6D1"/><path d="M13.17 79.86c-4.83.4-9.11-3.5-9.55-8.74-.45-5.23 3.12-9.8 7.95-10.22.25-.02.5-.02.74-.02a54.8 54.8 0 0 1 1.26-7.92l-.68-.31c-4.4-2.26-6.33-7.94-4.3-12.67 2.04-4.74 7.26-6.74 11.67-4.48.23.12.45.25.67.39a50.38 50.38 0 0 1 4.76-6.12c-.16-.21-.32-.42-.46-.65-2.8-4.33-1.85-10.25 2.11-13.22 3.97-2.97 9.45-1.86 12.25 2.46.15.23.27.45.4.68a44.53 44.53 0 0 1 7-2.67c-.05-.26-.09-.53-.11-.8-.44-5.23 3.12-9.8 7.95-10.21 4.84-.41 9.11 3.5 9.56 8.73l.03.81c2.48.28 4.94.77 7.34 1.47.09-.25.17-.5.28-.74 2.04-4.74 7.26-6.74 11.67-4.47 4.4 2.26 6.33 7.94 4.3 12.67l-.36.72a50.33 50.33 0 0 1 5.72 5.23l.6-.49c3.96-2.97 9.45-1.87 12.25 2.46 2.8 4.33 1.85 10.25-2.12 13.22-.2.15-.4.28-.62.41 1.04 2.47 1.9 5.01 2.57 7.6.24-.04.48-.08.74-.1 4.83-.4 9.11 3.5 9.55 8.74.44 5.24-3.12 9.8-7.95 10.22-.25.02-.5.02-.75.02a54.71 54.71 0 0 1-1.26 7.93l.69.3c4.4 2.27 6.33 7.94 4.3 12.68-2.04 4.74-7.27 6.74-11.67 4.47a8.9 8.9 0 0 1-.67-.38 50.33 50.33 0 0 1-4.77 6.12c.16.2.32.42.47.65 2.8 4.33 1.85 10.24-2.12 13.21-3.96 2.97-9.45 1.87-12.24-2.46-.15-.22-.27-.45-.4-.68a44.64 44.64 0 0 1-7 2.67c.05.27.09.53.1.8.45 5.24-3.11 9.81-7.95 10.22-4.83.4-9.1-3.5-9.55-8.74a9.82 9.82 0 0 1-.03-.8 44.7 44.7 0 0 1-7.34-1.47c-.09.24-.17.49-.28.73-2.04 4.74-7.26 6.74-11.67 4.48-4.4-2.27-6.33-7.94-4.3-12.68.11-.24.23-.48.36-.71a50.23 50.23 0 0 1-5.73-5.24 7.6 7.6 0 0 1-.59.5c-3.97 2.97-9.45 1.86-12.25-2.47-2.8-4.33-1.85-10.24 2.11-13.21.2-.15.42-.29.63-.42-1.04-2.47-1.9-5-2.57-7.6-.25.04-.5.08-.74.1Zm49.7 20.92c17.56-1.48 30.5-18.08 28.9-37.08-1.6-19-17.14-33.2-34.69-31.73C39.53 33.45 26.6 50.05 28.2 69.06c1.6 19 17.13 33.2 34.69 31.72Z" fill="#D8DEE8"/><path d="M99.22 60.18v44.78c0 1.49-1.02 2.67-2.27 2.64l-73.99-1.81c-1.14-.03-2.06-1.2-2.06-2.62V60.55l78.32-.37Z" fill="#fff"/><path d="m22.96 55.12 74-.6c1.24-.01 2.26 1.18 2.26 2.67v4.59l-78.32.28V57.7c0-1.42.92-2.58 2.06-2.58Z" fill="url(#h)"/><path d="M80.74 83.83 76.6 66.49c-6.23 2.42-10.72 9.41-10.75 17.68l14.89-.34Z" fill="url(#i)"/><path d="M69.68 85.3c.23 3.94 1.8 7.45 4.17 9.88l6.49-10.14-10.66.25ZM81.66 83.24c2.51-2.86 5.55-6.32 7.97-9.1a10.96 10.96 0 0 0-8.22-3.94c-.94 0-1.88.13-2.78.4l3.03 12.64ZM82.19 84.33l9.13 8.14a16.07 16.07 0 0 0 2.04-7.94c0-3.64-1.14-6.97-3.02-9.5l-2.23 2.55-5.92 6.75ZM81.93 85.6l.17 13c3.47-.17 6.56-2.13 8.62-5.16l-8.8-7.83ZM80.91 86.15l-6.26 9.79a10.7 10.7 0 0 0 6.43 2.66l-.17-12.45Z" fill="#F4F7FA"/><path d="m26.25 74.41 37.5.16V70.2l-37.5-.06v4.27ZM26.25 82.13l37.5.35v-4.37l-37.5-.24v4.26ZM26.25 89.86l37.5.53v-4.37l-37.5-.43v4.27ZM26.25 97.58l37.5.72v-4.37l-37.5-.62v4.27Z" fill="#D8DEE8"/><path d="M23.92 58.7c0 .65.45 1.18 1 1.18.56 0 1.01-.54 1.01-1.2 0-.66-.45-1.2-1-1.19-.56 0-1 .54-1 1.2ZM177.03 157.3v54.27c0 1.8-1.26 3.19-2.81 3.1l-91.05-5.47c-1.39-.08-2.51-1.53-2.51-3.24v-51.33l96.37 2.66Z" fill="#fff"/><path d="m83.17 148.17 91.05 2.17c1.55.04 2.8 1.53 2.8 3.33v5.56l-96.36-2.77v-5.26c0-1.7 1.12-3.06 2.52-3.03Z" fill="url(#j)"/><path d="m90.45 200.32 75.76 4.13v-37l-75.76-2.54v35.41Z" fill="#F4F7FA"/><path d="m90.45 200.32 75.75 4.13v-23.79c-2.48 16.06-5.12 19.5-7.1 19.57-2.8.1-4.31-6.5-8.54-6.87-4.2-.38-5.61 5.88-8.75 5.5-5.97-.72-7.6-24.18-12.43-24.53-3.83-.28-6.43 14.28-9.8 13.55-2.48-.54-3.08-8.75-4.94-8.74-1.7 0-1.77 6.75-4 7.28-3.26.77-6.44-12.95-10.94-13.22-2.48-.15-5.58 3.81-9.25 17.58v9.54Z" fill="url(#k)"/><path d="M83.73 152.36c0 .8.56 1.46 1.24 1.48.69.02 1.25-.61 1.25-1.41 0-.8-.56-1.46-1.25-1.48-.68-.02-1.24.62-1.24 1.41ZM253.04 57.34v77.81c0 2.58-1.88 4.65-4.19 4.6l-132.97-2.26c-2-.04-3.6-2-3.6-4.39V61.2l140.76-3.86Z" fill="#fff"/><path d="m115.88 51.95 132.97-4.35c2.31-.08 4.2 1.95 4.2 4.54v7.97l-140.77 3.65v-7.37c0-2.39 1.6-4.38 3.6-4.44Z" fill="url(#l)"/><path d="M116.2 57.95c0 1.14.83 2.04 1.86 2.02 1.02-.03 1.85-.99 1.85-2.13s-.83-2.04-1.85-2.02c-1.03.03-1.86.99-1.86 2.13Z" fill="#fff"/><path d="m224.3 129.27 10.47.12V71.56l-10.48.21v57.5Z" fill="#F4F7FA"/><path d="m224.3 129.27 10.47.12v-27.45l-10.48.03v27.3Z" fill="url(#m)"/><path d="m209.91 129.1 10.31.12V71.85l-10.3.21v57.04Z" fill="#F4F7FA"/><path d="m209.91 129.1 10.31.12v-13.61l-10.3-.05v13.54Z" fill="url(#n)"/><path d="m195.76 128.94 10.15.12V72.14l-10.15.2v56.6Z" fill="#F4F7FA"/><path d="m195.76 128.94 10.15.12v-7.1l-10.15-.07v7.05Z" fill="url(#o)"/><path d="m181.83 128.78 9.99.12V72.42l-10 .2v56.16Z" fill="#F4F7FA"/><path d="m181.83 128.78 9.99.12V84.65l-10 .14v43.99Z" fill="url(#p)"/><path d="m168.1 128.62 9.84.12V72.7l-9.83.2v55.72Z" fill="#F4F7FA"/><path d="m168.1 128.62 9.84.12V89.82l-9.83.1v38.7Z" fill="url(#q)"/><path d="m154.6 128.47 9.69.1v-55.6l-9.7.2v55.3Z" fill="#F4F7FA"/><path d="m154.6 128.47 9.69.1V81.07l-9.7.14v47.27Z" fill="url(#r)"/><path d="m141.29 128.31 9.54.11V73.24l-9.54.19v54.88Z" fill="#F4F7FA"/><path d="m141.29 128.31 9.54.11v-33.9l-9.54.08v33.71Z" fill="url(#s)"/><path d="m128.18 128.16 9.4.1V73.5l-9.4.19v54.47Z" fill="#F4F7FA"/><path d="m128.18 128.16 9.4.1v-19l-9.4-.01v18.91Z" fill="url(#t)"/><path d="M258.2 163.56v45.17c0 1.5-.97 2.66-2.19 2.6l-71.76-4.02c-1.11-.06-2-1.27-2-2.7v-43.12l75.96 2.07Z" fill="#fff"/><path d="m184.25 156.07 71.76 1.7c1.21.03 2.2 1.27 2.2 2.77v4.63l-75.97-2.14v-4.42c0-1.43.9-2.57 2-2.54Z" fill="url(#u)"/><path d="M185.7 159.53c0 .67.43 1.22.97 1.23.53.02.97-.51.97-1.18 0-.66-.43-1.21-.97-1.23-.54 0-.97.52-.97 1.18Z" fill="#fff"/><path d="M246.66 185.2a4.8 4.8 0 0 0-3.38-3.02l-.1-7.72c4.16.34 7.73 3.68 9.33 8.28l-5.85 2.46Z" fill="url(#v)"/><path d="M242.1 182.16c-1.98.3-3.53 2.26-3.72 4.77l-6.12.05c.08-6.82 4.33-12.24 9.74-12.54l.1 7.72ZM238.44 188.39c.36 2.59 2.15 4.62 4.32 4.72.62.03 1.24-.1 1.8-.4l3.26 6.74a8.62 8.62 0 0 1-5.06 1.35c-5.47-.28-9.94-5.7-10.45-12.36l6.13-.05ZM248.83 198.72l-3.27-6.73a5.84 5.84 0 0 0 1.61-4.19c0-.4-.03-.8-.1-1.2l5.85-2.46c.32 1.28.47 2.6.47 3.93 0 4.5-1.8 8.4-4.56 10.65ZM223.86 184.28c-.65-1.57-1.86-2.71-3.29-2.98l-.1-7.62c4.06.34 7.53 3.63 9.08 8.17l-5.69 2.43Z" fill="#D8DEE8"/><path d="M219.43 181.28c-1.93.3-3.43 2.23-3.61 4.7l-5.96.06c.08-6.73 4.21-12.07 9.47-12.37l.1 7.61Z" fill="url(#w)"/><path d="M215.87 187.43c.34 2.55 2.1 4.56 4.2 4.65.6.03 1.21-.1 1.75-.39l3.17 6.64a8.3 8.3 0 0 1-4.92 1.33c-5.32-.26-9.67-5.6-10.17-12.18l5.97-.05ZM225.97 197.62l-3.18-6.65a5.79 5.79 0 0 0 1.58-4.12c0-.4-.04-.8-.1-1.2l5.69-2.43c.3 1.27.45 2.57.45 3.88 0 4.44-1.75 8.28-4.44 10.52ZM201.68 183.38c-.63-1.54-1.8-2.67-3.2-2.93l-.09-7.52c3.95.33 7.33 3.58 8.84 8.05l-5.55 2.4ZM197.37 180.43c-1.87.29-3.34 2.2-3.51 4.64l-5.8.07c.07-6.65 4.1-11.92 9.22-12.22l.1 7.5ZM193.9 186.5c.34 2.5 2.05 4.49 4.09 4.58.6.03 1.18-.1 1.7-.39l3.1 6.55a8 8 0 0 1-4.8 1.32c-5.18-.26-9.41-5.52-9.9-12.01l5.81-.06Z" fill="#D8DEE8"/><path d="m203.74 196.54-3.1-6.55a5.8 5.8 0 0 0 1.54-4.08c0-.4-.04-.79-.1-1.18l5.53-2.4c.3 1.26.45 2.54.45 3.83 0 4.38-1.71 8.17-4.32 10.38Z" fill="url(#x)"/><defs><linearGradient id="a" x1="1.69" y1="25.76" x2="329.03" y2="58.22" gradientUnits="userSpaceOnUse"><stop stop-color="#7C4EAB"/><stop offset="1" stop-color="#DD51D4"/></linearGradient><linearGradient id="b" x1="152.17" y1="246.78" x2="170.66" y2="254.55" gradientUnits="userSpaceOnUse"><stop stop-color="#40447E"/><stop offset="1" stop-color="#3C3B6B"/></linearGradient><linearGradient id="c" x1="-230699" y1="261614" x2="-201362" y2="280081" gradientUnits="userSpaceOnUse"><stop stop-color="#40447E"/><stop offset="1" stop-color="#3C3B6B"/></linearGradient><linearGradient id="d" x1="-77054.5" y1="266460" x2="-406545" y2="266460" gradientUnits="userSpaceOnUse"><stop stop-color="#40447E"/><stop offset="1" stop-color="#3C3B6B"/></linearGradient><linearGradient id="e" x1="94.53" y1="137.43" x2="289.1" y2="168.15" gradientUnits="userSpaceOnUse"><stop stop-color="#7C4EAB"/><stop offset="1" stop-color="#DD51D4"/></linearGradient><linearGradient id="f" x1="-116214" y1="67793.7" x2="-863973" y2="67793.7" gradientUnits="userSpaceOnUse"><stop stop-color="#40447E"/><stop offset="1" stop-color="#3C3B6B"/></linearGradient><linearGradient id="g" x1="-66818.6" y1="39492.8" x2="-468241" y2="39492.8" gradientUnits="userSpaceOnUse"><stop stop-color="#40447E"/><stop offset="1" stop-color="#3C3B6B"/></linearGradient><linearGradient id="h" x1="-211467" y1="6619.22" x2="-211097" y2="12898.6" gradientUnits="userSpaceOnUse"><stop stop-color="#FFC444"/><stop offset="1" stop-color="#F36F56"/></linearGradient><linearGradient id="i" x1="-116045" y1="19049.9" x2="-112461" y2="29729.3" gradientUnits="userSpaceOnUse"><stop stop-color="#FFC444"/><stop offset="1" stop-color="#F36F56"/></linearGradient><linearGradient id="j" x1="120.63" y1="141.12" x2="164.99" y2="213.65" gradientUnits="userSpaceOnUse"><stop stop-color="#AA80F9"/><stop offset="1" stop-color="#6165D7"/></linearGradient><linearGradient id="k" x1="-140207" y1="69579.8" x2="-141433" y2="86384.6" gradientUnits="userSpaceOnUse"><stop stop-color="#AA80F9"/><stop offset="1" stop-color="#6165D7"/></linearGradient><linearGradient id="l" x1="171.63" y1="39.21" x2="231.25" y2="136.69" gradientUnits="userSpaceOnUse"><stop stop-color="#FF9085"/><stop offset="1" stop-color="#FB6FBB"/></linearGradient><linearGradient id="m" x1="-5025.41" y1="28566.2" x2="2338.02" y2="37334.5" gradientUnits="userSpaceOnUse"><stop stop-color="#FF9085"/><stop offset="1" stop-color="#FB6FBB"/></linearGradient><linearGradient id="n" x1="-6253.82" y1="16544.4" x2="-4778.55" y2="20019.1" gradientUnits="userSpaceOnUse"><stop stop-color="#FF9085"/><stop offset="1" stop-color="#FB6FBB"/></linearGradient><linearGradient id="o" x1="-7578.59" y1="9301.93" x2="-7293.72" y2="10560.2" gradientUnits="userSpaceOnUse"><stop stop-color="#FF9085"/><stop offset="1" stop-color="#FB6FBB"/></linearGradient><linearGradient id="p" x1="-9777.2" y1="36782.6" x2="7665.61" y2="49079.3" gradientUnits="userSpaceOnUse"><stop stop-color="#FF9085"/><stop offset="1" stop-color="#FB6FBB"/></linearGradient><linearGradient id="q" x1="-10983.4" y1="34821.2" x2="3067" y2="45908.3" gradientUnits="userSpaceOnUse"><stop stop-color="#FF9085"/><stop offset="1" stop-color="#FB6FBB"/></linearGradient><linearGradient id="r" x1="-12423.7" y1="37484.7" x2="6803.04" y2="49719.6" gradientUnits="userSpaceOnUse"><stop stop-color="#FF9085"/><stop offset="1" stop-color="#FB6FBB"/></linearGradient><linearGradient id="s" x1="-13338.7" y1="32311.8" x2="-2370.42" y2="41948.6" gradientUnits="userSpaceOnUse"><stop stop-color="#FF9085"/><stop offset="1" stop-color="#FB6FBB"/></linearGradient><linearGradient id="t" x1="-14181.1" y1="21584.5" x2="-10796.3" y2="26804.9" gradientUnits="userSpaceOnUse"><stop stop-color="#FF9085"/><stop offset="1" stop-color="#FB6FBB"/></linearGradient><linearGradient id="u" x1="213.69" y1="150.65" x2="248.89" y2="208.21" gradientUnits="userSpaceOnUse"><stop stop-color="#E38DDD"/><stop offset="1" stop-color="#9571F6"/></linearGradient><linearGradient id="v" x1="-6005.78" y1="23923.2" x2="-4235.14" y2="26366.4" gradientUnits="userSpaceOnUse"><stop stop-color="#FF9085"/><stop offset="1" stop-color="#FB6FBB"/></linearGradient><linearGradient id="w" x1="-9000.58" y1="27682.8" x2="-9454.91" y2="34408.4" gradientUnits="userSpaceOnUse"><stop stop-color="#FFC444"/><stop offset="1" stop-color="#F36F56"/></linearGradient><linearGradient id="x" x1="-7841.15" y1="32783.9" x2="-6729.6" y2="39372.2" gradientUnits="userSpaceOnUse"><stop stop-color="#AA80F9"/><stop offset="1" stop-color="#6165D7"/></linearGradient></defs></svg>