<svg width="14" height="14" fill="none" xmlns="http://www.w3.org/2000/svg"><path d="M1.038 9.113C.702 9.24.53 9.618.69 9.94a6.607 6.607 0 1 0 .429-6.618c-.2.298-.079.695.238.865.317.17.708.047.915-.246a5.305 5.305 0 1 1-.358 5.534c-.168-.318-.54-.49-.876-.362Z" fill="#fff"/><path d="M.826 6.483a.517.517 0 0 0 0 1.034V6.483Zm8.624.883a.517.517 0 0 0 0-.732l-3.29-3.29a.517.517 0 0 0-.732.731L8.353 7 5.428 9.925a.517.517 0 0 0 .732.731l3.29-3.29Zm-8.624.151h8.258V6.483H.826v1.034Z" fill="#fff"/></svg>