<svg width="39" height="39" fill="none" xmlns="http://www.w3.org/2000/svg"><g clip-path="url(#a)" fill="#fff"><path d="M19.55 38.26c-.7-.16-1.35-.38-1.79-.98-.27-.38-.48-.86-.7-1.3-.1-.22-.16-.32-.38-.38a16.1 16.1 0 0 1-9.43-5.64c-.16-.21-.33-.21-.54-.16a2.91 2.91 0 0 1-3.53-1.35c-.7-1.3-.43-2.88.76-3.74.22-.17.27-.33.16-.6-.97-3.2-.97-6.45 0-9.65.06-.21.06-.38-.16-.54a2.87 2.87 0 0 1-.81-3.74A2.9 2.9 0 0 1 6.7 8.82c.27.11.38 0 .54-.16a16.1 16.1 0 0 1 9.27-5.58c.32-.06.54-.16.65-.6.21-1.3 1.46-2.17 2.82-2.17A2.9 2.9 0 0 1 22.8 2.6c.06.33.22.43.5.49 2.21.43 4.22 1.3 6.06 2.6 1.25.87 2.33 1.84 3.26 2.98.16.22.32.27.6.16 1.3-.48 2.81.11 3.52 1.3a2.9 2.9 0 0 1-.7 3.75c-.23.16-.28.32-.23.6.98 3.19.98 6.44 0 9.64-.05.22-.05.38.17.54a3.02 3.02 0 0 1 .92 3.58c-.6 1.3-2 2.06-3.3 1.68-.6-.16-.88 0-1.26.43a16.22 16.22 0 0 1-8.94 5.2c-.32.06-.54.22-.6.6a2.96 2.96 0 0 1-2.16 2.12c-.11 0-.17.05-.27.05-.33-.05-.55-.05-.82-.05Zm.38-27.27a8.33 8.33 0 0 0-8.3 8.3c0 4.55 3.75 8.29 8.3 8.29 4.55 0 8.3-3.74 8.3-8.3 0-4.55-3.75-8.29-8.3-8.29Zm-2.82-6.83c-3.74.7-6.77 2.55-9.16 5.48.65.81.87 1.68.65 2.65 0 .11.11.22.17.27l2.11 1.14c.32.17.65.38.98.55 1.95-2.88 4.6-4.45 8.07-4.45 3.47 0 6.07 1.63 8.02 4.45.93-.5 1.8-.98 2.66-1.47.43-.22.7-.43.6-1.03-.17-.81.16-1.52.7-2.17a15.07 15.07 0 0 0-9.16-5.47 2.94 2.94 0 0 1-2.28 2.06v2.38h-1.19V6.17a3 3 0 0 1-2.17-2ZM7.95 28.93a15.23 15.23 0 0 0 9.16 5.48 3.03 3.03 0 0 1 2.28-2.06v-2.39h1.2v2.39c1.13.27 1.84.98 2.21 2.06a15.33 15.33 0 0 0 9.17-5.48c-.7-1.08-.76-1.4-.66-2.65 0-.11-.05-.22-.1-.27-1.03-.6-2.12-1.14-3.2-1.74-1.95 2.88-4.6 4.45-8.08 4.45-3.47 0-6.12-1.63-8.07-4.45-1.09.6-2.12 1.14-3.15 1.74-.05.05-.16.16-.1.27a3.08 3.08 0 0 1-.66 2.65Zm3.36-5.69a9.72 9.72 0 0 1 0-7.96c-1.14-.6-2.22-1.25-3.36-1.85a3.05 3.05 0 0 1-2.7 1.03c-.98 3.2-.98 6.34 0 9.54a3.2 3.2 0 0 1 2.7 1.03 50.5 50.5 0 0 0 3.36-1.79Zm20.6 1.85c.7-.7 1.52-1.14 2.55-1.09.05 0 .22-.16.27-.21.54-1.74.76-3.47.65-5.32a12.49 12.49 0 0 0-.76-3.95c-1.03.1-1.9-.22-2.6-.93-.05-.05-.22-.05-.33 0-.48.28-.97.55-1.4.76-.55.33-1.14.6-1.69.93a9.72 9.72 0 0 1 0 7.96 64.8 64.8 0 0 0 3.31 1.85ZM19.93 5.03a1.8 1.8 0 0 0 1.8-1.73c0-.98-.77-1.8-1.74-1.8a1.8 1.8 0 0 0-1.8 1.8c-.05.92.77 1.73 1.74 1.73ZM7.46 11.59A1.8 1.8 0 0 0 5.68 9.8a1.8 1.8 0 0 0-1.8 1.79c0 .97.82 1.73 1.8 1.73 1.03 0 1.78-.8 1.78-1.73Zm28.46 0A1.8 1.8 0 0 0 34.2 9.8c-.98 0-1.8.76-1.8 1.73 0 .98.82 1.8 1.8 1.8.92.05 1.73-.77 1.73-1.74ZM7.46 26.99a1.8 1.8 0 0 0-1.78-1.8 1.8 1.8 0 0 0-1.8 1.8c0 .97.82 1.78 1.8 1.78 1.03 0 1.78-.81 1.78-1.79Zm28.46 0a1.8 1.8 0 0 0-1.73-1.8c-.98 0-1.8.76-1.8 1.74 0 .97.82 1.79 1.8 1.79.92.05 1.73-.76 1.73-1.74Zm-15.99 6.55a1.8 1.8 0 0 0-1.79 1.74c0 .97.82 1.79 1.8 1.79a1.8 1.8 0 0 0 1.78-1.8c0-.97-.81-1.73-1.79-1.73Z"/><path d="M18.04 18.58c-1.14-1.03-1.3-2.28-.98-3.63a2.98 2.98 0 0 1 3.09-2.22c1.57.16 2.6 1.35 2.71 2.92.05 1.09-.16 2.06-1.08 2.88.16.1.32.27.48.38.87.54 1.8 1.08 2.66 1.57.22.1.32.27.27.54v1.57c.05.7-.32 1.2-.92 1.41-.6.22-1.25.38-1.84.44-1.96.16-3.96.21-5.91-.11a6.54 6.54 0 0 1-.98-.27c-.65-.28-1.03-.76-.97-1.47v-1.62c0-.22.05-.33.21-.44l2.71-1.62c.22-.06.38-.17.55-.33Zm1.57 4.88c1.08-.05 1.84-.05 2.6-.1.49-.06 1.03-.17 1.52-.28.27-.05.32-.22.32-.49.16-.86-.16-1.46-1.03-1.79-.1-.05-.21-.1-.27-.16-.65-.43-1.3-.92-1.95-1.35-.05-.06-.22-.06-.33-.06h-1.24c-.11 0-.27 0-.33.06-.7.75-1.62 1.19-2.5 1.68-.53.32-.8.65-.7 1.3.06.76.06.76.76.97h.11c1.2.06 2.28.17 3.04.22Zm-1.47-7.48v.49c.06.92.82 1.57 1.68 1.62.87.06 1.68-.54 1.8-1.4.05-.5.05-.98-.06-1.42A1.77 1.77 0 0 0 19 14.2c-.6.38-.87 1.03-.87 1.79ZM20.53 3.84h-1.14V2.7h1.14v1.14ZM6.27 12.13H5.13v-1.14h1.14v1.14ZM34.73 11v1.13h-1.14v-1.14h1.14ZM6.27 27.58H5.13v-1.14h1.14v1.14ZM34.73 26.44v1.14h-1.14v-1.14h1.14ZM20.53 34.73v1.14h-1.14v-1.14h1.14Z"/></g><defs><clipPath id="a"><path fill="#fff" transform="translate(.98 .31)" d="M0 0h38v38H0z"/></clipPath></defs></svg>