<svg width="38" height="38" fill="none" xmlns="http://www.w3.org/2000/svg"><path d="M10.56 37.33c-.68-.3-1-.77-.91-1.53v-1.23h-5.9c-.92 0-1.38-.45-1.38-1.37v-1.15c0-.38.23-.61.54-.61.3 0 .54.23.54.6v1.16c0 .15.07.23.23.23h5.97V29.9c-1.46-.92-1.92-1.53-2.15-3.22-.92 0-1.83-.07-2.68 0-.76.08-1.3.92-1.37 1.76v1.07c0 .39-.23.62-.54.62-.3 0-.54-.23-.54-.62V28.3c.08-.92.54-1.68 1.3-2.22.08-.08.16-.08.24-.15-.31-1-.7-1.92-.92-2.84A16.26 16.26 0 0 1 5.36 9.47c.15-.23.23-.38.08-.69a1.98 1.98 0 0 1 .38-2.3 1.98 1.98 0 0 1 2.3-.45c.15.15.3.07.45-.08.92-.61 1.76-1.22 2.68-1.84.39-.23.7-.15.84.16.16.3 0 .53-.3.76-.84.61-1.69 1.15-2.53 1.76-.15.08-.15.23-.07.39.3.76.15 1.53-.39 2.06-.53.61-1.22.84-2.06.61-.23-.07-.3 0-.46.16a15.03 15.03 0 0 0-2.68 7.42c-.3 2.76.15 5.36 1.22 7.88.08.23.23.31.54.31H8.5c.07-.3 0-.46-.16-.61a4.4 4.4 0 0 1-1.68-2.83c0-.23-.08-.31-.3-.39a1.89 1.89 0 0 1-.85-3.13c.08-.08.16-.31.16-.46v-3.37c0-1.68 1.07-2.9 2.6-3.22.23-.07.53-.07.76-.07h3.45c.76 0 1.53.23 2.14.76.08.08.23.08.3.08.7-.3 1.38-.38 2.15-.38h1.07c.3 0 .54.23.61.53 0 .3-.23.54-.6.54h-1.62a2.6 2.6 0 0 0-2.6 2.45c-.07 1.15 0 2.3 0 3.44v.15c.3.08.3-.07.38-.3.16-.84.46-1.6.92-2.3.3-.38.46-.46.92-.3 1.46.46 2.83.84 4.36 1 .39 0 .85 0 1.23-.09a2 2 0 0 0 .69-.38c.3-.3.69-.3.92.08.38.61.68 1.3.76 1.99 0 .15.08.38.3.3V16.6c0-.38-.07-.61-.53-.61-.3-.08-.46-.3-.46-.62 0-.6-.23-1.07-.61-1.53a2.17 2.17 0 0 0-1.68-.76h-.62a.52.52 0 0 1-.53-.54c0-.3.23-.53.53-.53.85-.08 1.69.07 2.38.46.76-.77 1.68-1 2.67-.92h3.37c1.46 0 2.6.92 2.99 2.3 0 .07.07.22.23.3.46.3.69.77.69 1.3v2.6c0 .16.07.39.22.46 1 1.07.54 2.68-.84 3.14-.23.08-.23.15-.3.3a4.93 4.93 0 0 1-1.69 2.91c-.15.08-.15.31-.3.46l.07.08H33.22c.3 0 .38-.08.53-.3a16.14 16.14 0 0 0 1.23-7.81 15.73 15.73 0 0 0-2.6-7.35c-.16-.23-.31-.3-.54-.23-.77.23-1.45 0-1.99-.61a1.88 1.88 0 0 1-.38-2.07c-.08 0-.16-.15-.3-.3a16.2 16.2 0 0 0-7.59-3.37c-.3-.08-.45 0-.6.3-.77 1.38-2.76 1.3-3.53 0-.15-.22-.3-.3-.53-.22l-2.76.68a.84.84 0 0 1-.61 0c-.15-.07-.3-.3-.23-.45.08-.16.23-.46.38-.46.92-.31 1.76-.46 2.68-.7h.15c.46 0 .7-.15.85-.6.38-.92 1.07-1.3 1.99-1.3.84.07 1.53.45 1.83 1.3.16.3.3.38.61.45 3.07.46 5.74 1.61 8.12 3.6.23.15.38.23.69.08.76-.3 1.68-.08 2.22.53.53.62.68 1.53.3 2.3-.08.15-.15.3 0 .54 3.45 5.12 3.9 10.56 1.6 16.3 0 .07-.07.15-.07.23.16.07.23.15.38.3a2.87 2.87 0 0 1 1.15 2.37v4.67c0 .92-.46 1.38-1.37 1.38h-5.9v1.23c.08.76-.23 1.22-.92 1.53-5.89-.08-11.63-.08-17.45-.08Zm12.56-8.73c-.23 2.45-2.07 3.76-3.83 3.76-.92 0-1.68-.23-2.37-.85a3.85 3.85 0 0 1-1.53-2.98h-2.45c-1.38 0-2.22.84-2.22 2.22v5.05c0 .3.07.46.46.46h16.3c.15 0 .38.07.38-.23v-5.44c0-.99-.84-1.9-1.76-1.9-1.07-.16-1.99-.09-2.98-.09Zm-.23-10.48c-2.45.84-4.6-.08-6.82-.61-.07.07-.15.15-.15.3a2.98 2.98 0 0 0-.53 1.76c0 1.3-.08 2.6.07 3.83a3.8 3.8 0 0 0 4.06 3.3 3.83 3.83 0 0 0 3.6-3.76V19.5c0-.46-.16-.92-.23-1.38ZM7.96 16.97c-.07.46-.23.84-.3 1.23a27.02 27.02 0 0 0 0 3.52A3.42 3.42 0 0 0 14 23.25c-.08 0-.15-.08-.15-.08-1.3-.53-1.77-1.76-1.08-2.98 0-.08.08-.08.08-.16v-2.22c-1.68 0-3.21-.38-4.9-.84ZM34.98 33.5v-5.12c0-.77-.61-1.54-1.38-1.61-.92-.08-1.76 0-2.68 0-.23 1.68-.69 2.37-2.14 3.21v3.52h6.2ZM24.49 23.17c0 .08.08.15.08.15a3.53 3.53 0 0 0 3.6 1.46c1.45-.38 2.52-1.53 2.6-2.99a23.6 23.6 0 0 0 0-3.29c0-.38-.15-.84-.15-1.22-1.76.84-3.37.3-5.06 0v2.3c0 .22.08.38.16.53.53 1.07.15 2.37-1 2.83-.07.15-.15.23-.23.23Zm-.69-9.95.7 1.6c.07.24.15.32.3.47.23.23.46.46.69.76l.3.31c.54.15 1 .3 1.53.3.77.08 1.46.08 2.22 0 .23 0 .39-.3.54-.45.15-.16.3-.39.46-.39.15 0 .38.16.54.31.22.3.38.61.53 1v-1.61c0-.08-.15-.23-.23-.3-.38-.08-.53-.31-.53-.7-.08-1-.85-1.76-1.84-1.76h-3.9c-.54-.07-1 .16-1.3.46ZM6.81 16.97c.16-.23.31-.46.39-.69.3-.46.46-.53 1-.38.76.23 1.52.38 2.29.61.76.16 1.6.3 2.45.16-.08-1.3.07-2.53 1-3.45-.4-.3-.77-.46-1.23-.46H8.88c-1.15 0-1.99.77-2.07 1.92-.07.68 0 1.53 0 2.3Zm14.01 10.56a5.1 5.1 0 0 1-3.21 0c.22.92-.31 1.15-1.08 1a2.86 2.86 0 0 0 2.84 2.75c1.53-.07 2.75-1.3 2.67-2.68-.3-.07-.68-.07-.84-.22-.3-.16-.3-.54-.38-.85Zm-10.8 1.38c.4-.38.77-.69 1.16-1a3.49 3.49 0 0 1 1.99-.45c.15 0 .3-.08.3-.16.08-.15.08-.38.16-.68-.7.07-1.15-.08-1.08-.92-1 .3-1.9.3-2.83.07-.07.3-.15.62-.3.77-.16.15-.54.15-.77.23-.08.84.54 1.76 1.38 2.14Zm15.93-3.14c-.16.77-.16.77-1 .92-.07.69 0 .77.7.77a3 3 0 0 1 2.21.84c.23.15.38.38.61.61.92-.38 1.61-1.45 1.46-2.22-.84-.07-.92 0-1-.92-1.07.3-1.99.23-2.98 0ZM7.27 8.94c.54 0 1-.46 1-1 0-.53-.46-1-.92-1-.54 0-1 .39-1 .92a.93.93 0 0 0 .92 1.08Zm11.94-5.36c.54 0 1-.46 1-1 0-.53-.46-.91-1-1-.53 0-1 .47-1 1 .08.62.47 1 1 1Zm12.02 5.36c.53 0 1-.46 1-1 0-.53-.39-.92-.93-1-.53 0-.99.39-.99.92a.93.93 0 0 0 .92 1.08ZM16.46 27.46c.07-.46-.08-.77-.39-.77-.45-.07-.91 0-1.45 0 0 .3-.08.54-.08.77h1.92Zm7.34-.77h-1.14c-.54 0-.77.23-.62.77h1.92c-.08-.3-.08-.54-.16-.77Zm1.08-1.15c0-.69-.7-.76-.92-1.22l-.61 1.22h1.53Zm-9.8 0c-.23-.38-.38-.76-.61-1.14-.23.23-.39.38-.62.53-.22.15-.45.3-.3.61h1.53Zm-.84-3.44v-1.76c-.46.08-.7.38-.7.76 0 .46.24.85.7 1Zm9.95-1.76v1.76c.46-.08.69-.46.69-.84.07-.46-.23-.77-.7-.92Zm-17.6-1.07a.8.8 0 0 0-.54.76c0 .3.15.54.53.7v-1.46Zm25.33 1.45c.38-.15.53-.38.53-.76 0-.3-.15-.54-.53-.7v1.46Z" fill="#fff"/></svg>