<svg width="94" height="14" fill="none" xmlns="http://www.w3.org/2000/svg"><path d="M3.49 13.95c-.44 0-.96-.07-1.54-.2l-1.83-.5.5-1.5c1.04.37 1.9.55 2.6.55.36 0 .67-.08.92-.26.24-.17.37-.4.37-.7 0-.3-.08-.52-.24-.66a2.15 2.15 0 0 0-.9-.4l-1-.25C1 9.67.32 8.85.32 7.58c0-.76.29-1.4.87-1.88a3.5 3.5 0 0 1 2.31-.75c.38 0 .83.07 1.35.2l1.83.5-.5 1.5c-1-.36-1.75-.55-2.27-.55-.35 0-.64.1-.87.28a.81.81 0 0 0-.35.68c0 .3.08.52.24.67.16.15.45.28.88.39l.99.26c.74.2 1.27.5 1.59.9.32.4.48.91.48 1.54 0 .76-.28 1.39-.85 1.9-.57.48-1.4.73-2.52.73Zm7.92 0c-.93 0-1.58-.23-1.96-.68-.38-.46-.56-1.16-.56-2.1V6.75H7.52V5.12h1.37V2.96l2.35-.47v2.63h2.04v1.63h-2.04v4.46c0 .73.3 1.1.89 1.1.36 0 .74-.12 1.15-.34l.37 1.39c-.68.4-1.43.6-2.24.6Zm5.76 0a2.6 2.6 0 0 1-2.74-2.63c0-.53.17-.95.52-1.27.36-.34.91-.6 1.67-.78l2.98-.74v-.76c0-.36-.11-.64-.34-.85a1.2 1.2 0 0 0-.89-.32c-.43 0-1.4.33-2.92.98l-.65-1.5 2.11-.77a3.75 3.75 0 0 1 4.05.54c.66.57.99 1.34.99 2.29v3.18a7.44 7.44 0 0 0 .44 2.22l-2.02.41a6.3 6.3 0 0 1-.77-1.13c-.83.76-1.64 1.13-2.43 1.13ZM18 12.3c.49 0 1.02-.27 1.6-.83V9.6l-1.85.54c-.6.17-.9.5-.9.98 0 .37.11.66.32.87.21.2.49.31.83.31Zm8.84 1.65c-.93 0-1.58-.23-1.96-.68-.37-.46-.56-1.16-.56-2.1V6.75h-1.37V5.12h1.37V2.96l2.35-.47v2.63h2.04v1.63h-2.04v4.46c0 .73.3 1.1.89 1.1.36 0 .74-.12 1.15-.34l.37 1.39c-.68.4-1.43.6-2.24.6Zm26.14-.16h-2.35V8.73c0-.74-.1-1.28-.33-1.6-.21-.35-.55-.53-1.02-.53s-.97.28-1.52.84v6.35h-2.35V8.73c0-.74-.1-1.28-.31-1.6-.21-.35-.56-.53-1.04-.53-.46 0-.96.28-1.52.84v6.35H40.2v-6.2c0-.24-.04-.59-.13-1.04a5.12 5.12 0 0 0-.31-1.19l2-.4c.26.25.52.63.8 1.12a3.48 3.48 0 0 1 2.42-1.13c1.24 0 2.09.44 2.53 1.32.28-.36.66-.67 1.17-.93a3.3 3.3 0 0 1 1.52-.39c.94 0 1.63.28 2.1.82.46.54.7 1.39.7 2.54v5.48Zm4.27.16a2.6 2.6 0 0 1-2.74-2.63c0-.53.18-.95.52-1.27.36-.34.91-.6 1.67-.78l2.98-.74v-.76c0-.36-.11-.64-.34-.85a1.2 1.2 0 0 0-.88-.32c-.44 0-1.41.33-2.93.98l-.65-1.5L57 5.31a3.75 3.75 0 0 1 4.05.54c.66.57.99 1.34.99 2.29v3.18a7.43 7.43 0 0 0 .44 2.22l-2.01.41a6.3 6.3 0 0 1-.78-1.13c-.83.76-1.64 1.13-2.43 1.13Zm.84-1.65c.48 0 1-.27 1.59-.83V9.6l-1.85.54c-.6.17-.9.5-.9.98 0 .37.11.66.32.87.21.2.49.31.84.31Zm8.4 1.49h-2.35v-6.2c0-.24-.05-.59-.13-1.04a5.12 5.12 0 0 0-.32-1.19l2-.4c.39.38.65.9.8 1.55.25-.5.57-.88.98-1.15.42-.27.87-.4 1.35-.4.27 0 .52.04.74.12l-.4 2.02h-.62c-.58 0-1.03.14-1.37.43-.32.27-.55.73-.68 1.37v4.89Zm12.22 0h-2.88L72.96 9.3v4.48H70.6V1.42l2.35-.46v7.7l2.92-3.54h2.65L75.05 9l3.66 4.8Zm4.22.16c-1.4 0-2.45-.41-3.17-1.24a4.96 4.96 0 0 1-1.05-3.3c0-1.35.36-2.43 1.09-3.23a3.86 3.86 0 0 1 3.03-1.23c2.51 0 3.76 1.3 3.76 3.91 0 .27-.03.5-.09.69h-5.37c0 .92.17 1.61.5 2.07.35.46.82.68 1.43.68.68 0 1.56-.24 2.66-.74l.65 1.5-1.96.73c-.33.1-.83.16-1.48.16ZM82.7 6.6c-.5 0-.89.18-1.17.52-.27.35-.4.78-.4 1.3h3c0-1.21-.47-1.82-1.43-1.82Zm8.5 7.35c-.93 0-1.59-.23-1.97-.68-.37-.46-.55-1.16-.55-2.1V6.75h-1.37V5.12h1.37V2.96l2.35-.47v2.63h2.03v1.63h-2.03v4.46c0 .73.3 1.1.89 1.1.35 0 .74-.12 1.14-.34l.37 1.39c-.68.4-1.42.6-2.24.6Z" fill="#54618E"/><path d="M37.5 13.79h-2.23v-2.86H30.2l-.5-1.44L35 1.94h2.52v7.25h1.18v1.74h-1.18v2.86Zm-2.23-4.6V4.4l-3.28 4.8h3.28Z" fill="#D653D2"/></svg>