<svg width="36" height="19" fill="none" xmlns="http://www.w3.org/2000/svg"><mask id="b" style="mask-type:alpha" maskUnits="userSpaceOnUse" x="0" y="0" width="36" height="19"><ellipse cx="17.55" cy="9.57" rx="17.55" ry="8.87" fill="url(#a)"/></mask><g mask="url(#b)"><ellipse cx="17.55" cy="9.57" rx="17.55" ry="8.87" fill="url(#c)"/><path d="M23.13 12.03V2.17a5.04 5.04 0 0 1 .13-1.04l-16.1 10.9h15.97Zm14.91 0v.7c0 .09-.06.17-.18.23-.11.05-.29.08-.53.08h-12v5.4h-2.2v-5.4H5.52c-.26 0-.47-.03-.6-.08a.58.58 0 0 1-.3-.24l-.23-.62L23.1-.41h2.24v12.44h12.7Z" fill="#fff"/></g><defs><linearGradient id="a" x1="40.36" y1="-4.63" x2="30.34" y2="25.23" gradientUnits="userSpaceOnUse"><stop stop-color="#F0A"/><stop offset="1" stop-color="#8912DE"/></linearGradient><linearGradient id="c" x1="40.36" y1="-4.63" x2="30.34" y2="25.23" gradientUnits="userSpaceOnUse"><stop stop-color="#F0A"/><stop offset="1" stop-color="#8912DE"/></linearGradient></defs></svg>