<svg width="39" height="39" fill="none" xmlns="http://www.w3.org/2000/svg"><g clip-path="url(#a)" fill="#fff"><path d="M2.55 32.45h17.1v1.9c0 1.05.85 1.9 1.9 1.9h2.53a1.9 1.9 0 0 0 1.44-.66h.03c.46.43 1.06.66 1.7.66h7.6a1.9 1.9 0 0 0 1.9-1.9c0-.32-.1-.65-.26-.93a1.87 1.87 0 0 0 .63-2.53c.48-.3.8-.8.87-1.34.08-.56-.1-1.12-.47-1.53.5-.55.63-1.35.33-2.04a1.91 1.91 0 0 0-1.75-1.13h-1.9V5.22c0-1.4-1.13-2.53-2.53-2.53H2.55A2.54 2.54 0 0 0 .02 5.22v24.7c0 1.4 1.13 2.53 2.53 2.53ZM24.08 35h-2.53a.64.64 0 0 1-.64-.64v-5.7c0-.34.3-.63.64-.63h2.53c.35 0 .63.29.63.63v5.7c0 .35-.28.64-.63.64Zm12.67-8.24c0 .35-.29.64-.64.64h-1.9a.64.64 0 0 0-.63.63c0 .35.29.63.63.63h1.9c.35 0 .64.3.64.64s-.29.63-.64.63h-1.9a.64.64 0 0 0-.63.63c0 .35.29.64.63.64h1.27c.35 0 .63.28.63.63s-.28.63-.63.63h-1.27a.64.64 0 0 0-.63.64c0 .34.29.63.63.63h.64c.34 0 .63.29.63.63 0 .35-.29.64-.63.64h-7.6c-.7 0-1.27-.57-1.27-1.27V28.4c.8-.5 1.39-1.26 1.68-2.14.57-1.7.85-3.46.85-5.24a.2.2 0 0 1 .14-.2c.22-.03.78-.13 1.32.92.3.6.44 1.26.43 1.95v1.8c0 .35.3.64.64.64h5.06c.36 0 .65.29.65.63Zm-5.07-1.9v-1.17a5.58 5.58 0 0 0-.57-2.53c-.63-1.21-1.58-1.78-2.68-1.58-.69.13-1.18.73-1.18 1.44 0 1.64-.27 3.28-.78 4.84a2.8 2.8 0 0 1-1.1 1.43c-.35-.33-.81-.5-1.29-.52h-2.53a1.9 1.9 0 0 0-1.9 1.9v2.54H2.55c-.7 0-1.27-.57-1.27-1.27V9.03h31.67v15.82h-1.27ZM2.55 3.95h29.13c.7 0 1.27.57 1.27 1.27v2.54H1.28V5.22c0-.7.57-1.26 1.27-1.26Z"/><path fill-rule="evenodd" clip-rule="evenodd" d="M3.82 5.86c0 .34-.3.63-.64.63a.64.64 0 0 1-.63-.63c0-.35.29-.64.63-.64.35 0 .64.29.64.64ZM6.35 5.86c0 .34-.29.63-.63.63a.64.64 0 0 1-.64-.63c0-.35.29-.64.64-.64.34 0 .63.29.63.64ZM8.88 5.86c0 .34-.29.63-.63.63a.64.64 0 0 1-.63-.63c0-.35.28-.64.63-.64.34 0 .63.29.63.64Z"/><path d="M5.08 22.32h10.13a1.9 1.9 0 0 0 1.9-1.9v-7.6a1.9 1.9 0 0 0-1.9-1.9H5.08a1.9 1.9 0 0 0-1.9 1.9v7.6c0 1.05.85 1.9 1.9 1.9Zm1.56-1.26 2.92-4.62 1.41 1.77-1.8 2.85H6.64Zm8.57 0h-4.54l3.34-5.25 1.84 2.3v2.32c0 .34-.29.63-.63.63ZM4.46 12.82c0-.34.29-.63.63-.63h10.13c.35 0 .64.29.64.63v3.27l-1.4-1.76a.64.64 0 0 0-.53-.24.64.64 0 0 0-.5.3l-1.72 2.69-1.69-2.12a.64.64 0 0 0-.52-.24.64.64 0 0 0-.5.3l-3.85 6.04h-.06a.64.64 0 0 1-.63-.64v-7.6Z"/><path fill-rule="evenodd" clip-rule="evenodd" d="M6.98 14.09c0 .34-.29.63-.63.63a.64.64 0 0 1-.64-.63c0-.35.3-.63.64-.63s.63.28.63.63ZM30.41 11.55H19.65a.64.64 0 0 0-.64.64c0 .34.3.63.64.63H30.4c.35 0 .64-.29.64-.63a.64.64 0 0 0-.64-.64ZM30.41 14.09H19.65a.64.64 0 0 0-.64.63c0 .35.3.64.64.64H30.4c.35 0 .64-.3.64-.64a.64.64 0 0 0-.64-.63ZM30.41 16.62H19.65a.64.64 0 0 0-.64.63c0 .35.3.64.64.64H30.4c.35 0 .64-.29.64-.64a.64.64 0 0 0-.64-.63ZM25.35 19.16h-5.7a.64.64 0 0 0-.64.63c0 .35.3.63.64.63h5.7c.34 0 .63-.29.63-.63a.64.64 0 0 0-.63-.63ZM18.38 24.85H3.81a.64.64 0 0 0-.63.64c0 .34.29.63.63.63h14.57c.35 0 .64-.29.64-.63a.64.64 0 0 0-.64-.64ZM16.48 27.39H3.81a.64.64 0 0 0-.63.63c0 .35.29.63.63.63h12.67c.35 0 .63-.28.63-.63a.64.64 0 0 0-.63-.63Z"/></g><defs><clipPath id="a"><path fill="#fff" transform="translate(.02 .31)" d="M0 0h38v38H0z"/></clipPath></defs></svg>