<?xml version="1.0" encoding="utf-8"?><svg viewBox="0 0 270 270" xmlns="http://www.w3.org/2000/svg" xmlns:xlink="http://www.w3.org/1999/xlink"><style>:root&gt;svg{display:none}:root&gt;svg:target{display:block}</style>
<svg id="analytics1" width="269" height="266" fill="none" xmlns="http://www.w3.org/2000/svg"><path opacity=".5" d="M242.85 50.8c-4.1-5.62-39.2-52.15-96.12-49.88-2.84.11-58.34 3.05-78.81 39.52-15.15 26.98.89 50.92-17.59 69.3-16.1 16.02-35.88 5.41-45.77 18.36-15.07 19.73 8.92 73.02 45.8 102.73 38.07 30.69 110.9 53.2 167.5 12.26 63.56-45.96 62.92-140.26 25-192.29Z" fill="url(#a)" fill-opacity=".5"/><g style="mix-blend-mode:soft-light"><g style="mix-blend-mode:soft-light"><path d="M65.69 168.49c-5.29 0-10.57-.36-15.81-1.05l.06-.46c33.98 4.43 55.8-6.7 58.2-7.98-11.95-18.62-3.5-46-3.42-46.27l.45.14c-.09.27-8.52 27.66 3.5 46.08l.13.2-.21.13c-.2.11-16.23 9.2-42.9 9.2Z" fill="#fff"/></g></g><path d="M86.68 144.7a1.33 1.33 0 0 1-1.32-1.2c-1.17-12.21-5.15-23.82-11.22-32.67-5.37-7.85-11.77-12.54-17.12-12.54h-.01c-19.47.04-23.55 44.75-23.59 45.2a1.33 1.33 0 0 1-2.65-.22c.17-1.94 4.34-47.59 26.23-47.63h.02c6.32 0 13.36 4.99 19.32 13.69 6.31 9.22 10.46 21.27 11.66 33.93a1.33 1.33 0 0 1-1.2 1.45h-.12Z" fill="url(#b)"/><path d="m5.56 236.71 25.63 12.98 15.53-47.66-25.59-63.9-7.26 1.78-11 91.76a4.98 4.98 0 0 0 2.69 5.04Z" fill="url(#c)"/><path style="mix-blend-mode:multiply" opacity=".52" d="m46.73 202.03-25.6-63.9-4.28 1.06a139.1 139.1 0 0 0 .07 20.66c1.72 21.75 7.41 27.8 4.66 42.98-2.3 12.62-7.3 14.33-6.87 22.82.48 9.25 6.93 16.99 14.6 23.08l1.88.96 15.54-47.66Z" fill="url(#d)"/><path d="M21.13 138.14h95.57l31.63 102.11L31.2 249.7 21.13 138.14Z" fill="url(#e)"/><path d="M50.74 146.89a1.32 1.32 0 0 1-1.3-1.03c-.27-1.15-6.55-28.51 2.3-41.94a15.43 15.43 0 0 1 10.54-6.99c22.9-4.03 36.98 45.13 37.57 47.22a1.33 1.33 0 1 1-2.56.72c-.14-.48-14-48.95-34.55-45.32a12.7 12.7 0 0 0-8.77 5.83c-8.24 12.48-2 39.6-1.94 39.88a1.33 1.33 0 0 1-1.3 1.63Z" fill="url(#f)"/><g style="mix-blend-mode:multiply" opacity=".3"><path style="mix-blend-mode:multiply" opacity=".3" d="M116.7 138.13H69.3c-2.35 2.38-4 5.12-4.17 8.2-.74 14.45 32.47 19.2 35.68 39 2.3 14.28-11.91 30.76-24.6 38.1-13.36 7.74-22.42 3.82-31.46 12.4-3.97 3.78-6.39 8.5-7.83 13.4l111.42-8.98-31.64-102.12Z" fill="url(#g)"/></g><path d="M54.42 147.7a3.71 3.71 0 1 0-7.34-1.2 3.71 3.71 0 0 0 7.34 1.2Z" fill="url(#h)"/><path d="M103.41 146.88a3.73 3.73 0 1 0-7.35-1.19 3.73 3.73 0 0 0 7.35 1.2Z" fill="url(#i)"/><path d="M186.87 32.22c8.3 70.16 16.6 139.59 24.9 208.29a5.32 5.32 0 0 1-4.73 6.06c-33.36 3.16-66.73 6.4-100.09 9.7-5.95.29-9.22-3.04-9.6-6.37C88.8 175.74 80.26 100.8 71.7 25.1c-.38-3.4 2.5-6.33 8.45-6.04 33.53 2.4 67.06 4.76 100.59 7.08 3 .2 5.75 2.94 6.12 6.09Z" fill="#26264F"/><path d="M191.5 32.07c8.36 70.47 16.72 140.2 25.07 209.19a5.35 5.35 0 0 1-4.76 6.08c-34.65 2.94-69.3 5.93-103.94 8.98-3.16.28-6.06-2.22-6.45-5.57-8.6-74.5-17.2-149.79-25.8-225.86-.39-3.42 1.9-6.04 5.09-5.82 34.88 2.33 69.76 4.62 104.63 6.9 3.02.2 5.8 2.94 6.17 6.1Z" fill="url(#j)"/><path d="M189.5 43.6c7.73 65.29 15.47 129.94 23.2 193.96a4.98 4.98 0 0 1-4.44 5.68c-32.58 2.66-65.17 5.38-97.75 8.14-2.94.26-5.65-2.09-6.01-5.2-7.96-68.81-15.9-138.3-23.85-208.45-.36-3.18 1.77-5.63 4.73-5.46 32.79 1.91 65.57 3.8 98.36 5.67 2.82.16 5.4 2.71 5.75 5.66Z" fill="url(#k)"/><path d="M189.5 43.6c7.73 65.29 15.47 129.94 23.2 193.96a4.98 4.98 0 0 1-4.44 5.68c-32.58 2.66-65.17 5.38-97.75 8.14-2.94.26-5.65-2.09-6.01-5.2-7.96-68.81-15.9-138.3-23.85-208.45-.36-3.18 1.77-5.63 4.73-5.46 32.79 1.91 65.57 3.8 98.36 5.67 2.82.16 5.4 2.71 5.75 5.66Z" fill="url(#l)"/><g style="mix-blend-mode:multiply" opacity=".35"><path d="M183.74 37.94c-32.4-1.85-64.8-3.72-97.19-5.6 1.1 6.36 3 12.55 5.7 18.41 10.74 23.31 26.53 24.6 32.7 44.91 6.36 20.93-7.98 27.48-.98 46.38 7.61 20.5 26.27 17.54 36.13 40.03 8.5 19.39-2.44 28.25 6.35 40.03 9.63 12.91 27.45 8.54 45.95 12.91A84629.05 84629.05 0 0 1 189.5 43.6c-.35-2.95-2.94-5.5-5.76-5.66Z" fill="url(#m)"/></g><path d="M136.42 29.33c.14 1.14-.63 2-1.7 1.94-1.07-.06-2.05-1.04-2.19-2.18-.13-1.14.64-2.01 1.71-1.94 1.07.07 2.05 1.04 2.18 2.18Z" fill="#DE8BDF"/><path d="M148.13 92.43c4.14 0 7.5-3.96 7.5-8.85s-3.36-8.85-7.5-8.85c-4.15 0-7.5 3.96-7.5 8.85s3.35 8.85 7.5 8.85Z" fill="#DD51D4"/><path d="M148.13 92.43c4.14 0 7.5-3.96 7.5-8.85s-3.36-8.85-7.5-8.85c-4.15 0-7.5 3.96-7.5 8.85s3.35 8.85 7.5 8.85Z" fill="#000" fill-opacity=".2"/><path d="M177.97 92.43c4.15 0 7.5-3.96 7.5-8.85s-3.35-8.85-7.5-8.85c-4.14 0-7.5 3.96-7.5 8.85s3.36 8.85 7.5 8.85Z" fill="#DD51D4"/><path d="M177.97 92.43c4.15 0 7.5-3.96 7.5-8.85s-3.35-8.85-7.5-8.85c-4.14 0-7.5 3.96-7.5 8.85s3.36 8.85 7.5 8.85Z" fill="#000" fill-opacity=".2"/><path d="M162.97 92.43c4.2 0 7.6-3.96 7.6-8.85s-3.4-8.85-7.6-8.85c-4.2 0-7.6 3.96-7.6 8.85s3.4 8.85 7.6 8.85Z" fill="#D8DEE8"/><path d="M207.82 92.43c4.14 0 7.5-3.96 7.5-8.85s-3.36-8.85-7.5-8.85c-4.14 0-7.5 3.96-7.5 8.85s3.36 8.85 7.5 8.85Z" fill="#DD51D4"/><path d="M207.82 92.43c4.14 0 7.5-3.96 7.5-8.85s-3.36-8.85-7.5-8.85c-4.14 0-7.5 3.96-7.5 8.85s3.36 8.85 7.5 8.85Z" fill="#000" fill-opacity=".2"/><path d="M192.82 92.43c4.2 0 7.6-3.96 7.6-8.85s-3.4-8.85-7.6-8.85c-4.2 0-7.6 3.96-7.6 8.85s3.4 8.85 7.6 8.85ZM222.66 92.43c4.2 0 7.6-3.96 7.6-8.85s-3.4-8.85-7.6-8.85c-4.2 0-7.6 3.96-7.6 8.85s3.4 8.85 7.6 8.85ZM133.12 92.43c4.2 0 7.6-3.96 7.6-8.85s-3.4-8.85-7.6-8.85c-4.2 0-7.6 3.96-7.6 8.85s3.4 8.85 7.6 8.85Z" fill="#D8DEE8"/><path d="m79.15 31.4 46.53 53.38h120.09l-58.2-46.62L79.16 31.4Z" fill="url(#n)"/><path d="m79.15 31.4 46.53 53.38h120.09l-58.2-46.62L79.16 31.4Z" fill="#DD51D4"/><path d="m79.15 31.4 46.53 53.38h15.04l-49.06-52.6-12.51-.78ZM105.1 33.01l50.45 51.77h14.87l-51.78-50.92L105.1 33ZM132.28 34.7l53.04 50.08h14.93l-54.23-49.21-13.74-.86ZM173.82 37.3l-13.95-.87 55.35 48.35h15.01l-56.4-47.48Z" fill="#F4F7FA"/><path d="M230.25 84.78c.5 4.32 3.62 7.65 7.42 7.65s6.93-3.33 7.42-7.65h-14.84Z" fill="#DD51D4"/><path d="M230.25 84.78c.5 4.32 3.62 7.65 7.42 7.65s6.93-3.33 7.42-7.65h-14.84Z" fill="#000" fill-opacity=".2"/><path opacity=".63" d="M173.17 118.13c-6.5-14.97-22.97-22.24-36.8-16.24-13.84 6-19.78 23-13.29 37.97 6.5 14.97 22.98 22.24 36.8 16.23 13.84-6 19.78-23 13.29-37.96Zm-20.4 21.33.56 4.21-4.05.54-.52-3.93c-2.78.24-5.57-.15-7.26-.85l.6-5c1.87.72 4.42 1.27 7.11.91 2.36-.3 3.85-1.43 3.63-3.08-.2-1.57-1.66-2.4-4.85-3.02-4.62-.91-7.9-2.58-8.44-6.59-.48-3.64 1.71-6.83 6.02-8.28l-.51-3.92 4.05-.53.47 3.63c2.8-.24 4.73.1 6.18.58l-.58 4.83c-1.14-.32-3.17-1.02-6.14-.63-2.69.36-3.4 1.63-3.25 2.79.18 1.36 1.74 2.03 5.43 2.9 5.15 1.09 7.43 3.1 7.92 6.82.47 3.68-1.72 7.16-6.36 8.62Z" fill="#F4F7FA"/><g opacity=".63" fill="#F4F7FA"><path opacity=".63" d="m188 199.4-63.3 1.92a4.5 4.5 0 0 1-4.58-3.82l-2.57-16.88a4.5 4.5 0 0 1 4.35-5.18l63.37-1.47a4.5 4.5 0 0 1 4.56 3.83l2.5 16.43a4.5 4.5 0 0 1-4.32 5.17ZM190.13 213.28l-63.27 2.16a4.5 4.5 0 0 1-4.6-3.82l-.02-.16a4.49 4.49 0 0 1 4.3-5.18l63.3-2a4.5 4.5 0 0 1 4.6 3.82 4.5 4.5 0 0 1-4.3 5.18Z"/></g><defs><linearGradient id="a" x1="268.96" y1="26.07" x2="-59.04" y2="59.35" gradientUnits="userSpaceOnUse"><stop stop-color="#7C4EAB"/><stop offset="1" stop-color="#DD51D4"/></linearGradient><linearGradient id="b" x1="60970.5" y1="80159.1" x2="62425.6" y2="102222" gradientUnits="userSpaceOnUse"><stop stop-color="#E38DDD"/><stop offset="1" stop-color="#9571F6"/></linearGradient><linearGradient id="c" x1="-8.05" y1="152.31" x2="24.36" y2="206.65" gradientUnits="userSpaceOnUse"><stop stop-color="#FF9085"/><stop offset="1" stop-color="#FB6FBB"/></linearGradient><linearGradient id="d" x1="14305.7" y1="225067" x2="47427" y2="241022" gradientUnits="userSpaceOnUse"><stop stop-color="#FF9085"/><stop offset="1" stop-color="#FB6FBB"/></linearGradient><linearGradient id="e" x1="71208.2" y1="209681" x2="178805" y2="304216" gradientUnits="userSpaceOnUse"><stop stop-color="#FF9085"/><stop offset="1" stop-color="#FB6FBB"/></linearGradient><linearGradient id="f" x1="61423.6" y1="71789" x2="66005.2" y2="102561" gradientUnits="userSpaceOnUse"><stop stop-color="#E38DDD"/><stop offset="1" stop-color="#9571F6"/></linearGradient><linearGradient id="g" x1="110114" y1="250872" x2="214669" y2="331666" gradientUnits="userSpaceOnUse"><stop stop-color="#FF9085"/><stop offset="1" stop-color="#FB6FBB"/></linearGradient><linearGradient id="h" x1="7096.34" y1="14811" x2="7211.06" y2="14853.6" gradientUnits="userSpaceOnUse"><stop stop-color="#E38DDD"/><stop offset="1" stop-color="#9571F6"/></linearGradient><linearGradient id="i" x1="10897.4" y1="14818.1" x2="11012.5" y2="14860.7" gradientUnits="userSpaceOnUse"><stop stop-color="#E38DDD"/><stop offset="1" stop-color="#9571F6"/></linearGradient><linearGradient id="j" x1="92.57" y1="137.25" x2="299.42" y2="104.52" gradientUnits="userSpaceOnUse"><stop stop-color="#444B8C"/><stop offset="1" stop-color="#26264F"/></linearGradient><linearGradient id="k" x1="185.56" y1="56.95" x2="-18.14" y2="479.47" gradientUnits="userSpaceOnUse"><stop stop-color="#FFC444"/><stop offset="1" stop-color="#F36F56"/></linearGradient><linearGradient id="l" x1="212.75" y1="53.17" x2="50.54" y2="62.93" gradientUnits="userSpaceOnUse"><stop stop-color="#7C4EAB"/><stop offset="1" stop-color="#DD51D4"/></linearGradient><linearGradient id="m" x1="212.4" y1="51.68" x2="57.95" y2="61.25" gradientUnits="userSpaceOnUse"><stop stop-color="#7C4EAB"/><stop offset="1" stop-color="#DD51D4"/></linearGradient><linearGradient id="n" x1="146213" y1="36403" x2="432448" y2="36403" gradientUnits="userSpaceOnUse"><stop stop-color="#FF9085"/><stop offset="1" stop-color="#FB6FBB"/></linearGradient></defs></svg>
<svg id="analytics2" width="270" height="270" fill="none" xmlns="http://www.w3.org/2000/svg"><path opacity=".5" d="M205.5 16.23c9.01 13.03-1.56 34.17 11.82 43.97 13.01 9.55 29-6.1 41.27 2.12 18.2 12.18 14.87 67.95-11.73 102.6-8 10.4-14.69 14.47-17.65 26.25-6.36 25.3 15.99 40.35 11.74 52.87-9.57 28.17-156.83 51.82-215.91-32.86-27.6-39.55-31.72-96.67-7.07-140.04C62.52-7.24 185.27-13.02 205.5 16.23Z" fill="url(#a)" fill-opacity=".5"/><path d="m0 236.97 263.59-1.96v5.8a3.19 3.19 0 0 1-2.7 3.15l-74.54 11.43a12 12 0 0 1-2.68.1L2.87 242.48A3.09 3.09 0 0 1 0 239.4v-2.42Z" fill="url(#b)"/><path d="m95.65 227.56 165.21 10.62c2.96.19 5.36-1.83 5.36-4.51V126.3c0-2.68-2.4-4.86-5.36-4.86H95.66a4.4 4.4 0 0 0-4.41 4.39v97.06a4.75 4.75 0 0 0 4.4 4.67Z" fill="url(#c)"/><path d="m93.02 227.56 165.2 10.62c2.96.19 5.37-1.83 5.37-4.51V126.3c0-2.68-2.4-4.86-5.36-4.86H93.02a4.4 4.4 0 0 0-4.4 4.39v97.06a4.75 4.75 0 0 0 4.4 4.67Z" fill="url(#d)"/><path d="m98.17 220.72 153.87 9.22c2.4.15 4.36-1.51 4.36-3.7v-94c0-2.2-1.95-3.98-4.36-3.99l-153.87-.58a3.6 3.6 0 0 0-3.64 3.6v85.62c0 2 1.63 3.71 3.64 3.83Z" fill="url(#e)"/><path d="M169.79 124.38c0 1 .85 1.8 1.9 1.81 1.05 0 1.9-.8 1.9-1.8s-.85-1.81-1.9-1.81c-1.05 0-1.9.8-1.9 1.8Z" fill="#fff"/><g style="mix-blend-mode:soft-light" opacity=".48"><path d="M132.82 198.12c12.74-6.24 22.75 1.66 32.42-6.13 5.86-4.72 2.98-8.24 10.2-15.3 7.98-7.81 13.18-5.19 21.2-12.22 10.15-8.9 5.07-15.82 13.81-22.2 10.6-7.75 22.04-.58 32.14-8.01 4.35-3.2 6.74-7.86 7.99-12.82h9.87c1.73 0 3.14 1.28 3.14 2.85v111.3c0 1.58-1.4 2.76-3.14 2.65L92.08 227.37a2.75 2.75 0 0 1-2.03-1.13c12.33-.4 19.9-4.16 24.74-8.04 9.47-7.6 7.82-15.09 18.03-20.08Z" fill="#fff"/></g><path d="m86.44 227.08 177.15 11.18-77.24 11.84c-.89.13-1.79.17-2.68.1L0 236.97l83.61-9.81c.94-.11 1.89-.14 2.83-.08Z" fill="url(#f)"/><path style="mix-blend-mode:multiply" opacity=".3" d="M237.74 238.54 90.25 229.1l-45.64 5.3 146.21 10.1 46.92-5.96Z" fill="url(#g)"/><path d="M17.68 81.12c-4.84.4-9.12-3.5-9.56-8.74-.44-5.23 3.12-9.8 7.96-10.21.25-.02.5-.02.74-.02a54.8 54.8 0 0 1 1.26-7.93c-.23-.09-.46-.19-.68-.3-4.41-2.27-6.33-7.94-4.3-12.68 2.04-4.73 7.26-6.74 11.67-4.47.23.11.45.25.66.38a50.41 50.41 0 0 1 4.77-6.12c-.16-.2-.32-.42-.46-.65-2.8-4.33-1.86-10.24 2.1-13.21 3.97-2.97 9.46-1.87 12.26 2.46l.4.68a44.57 44.57 0 0 1 6.99-2.68c-.04-.26-.08-.53-.1-.8-.45-5.23-1.4-11.14 3.44-11.47 11.2-.76 13.62 4.77 14.07 10l.03.8c2.48.3 4.94.78 7.34 1.48.09-.25.17-.5.28-.74 2.04-4.74 1.67-7.9 6.3-6.12 10.08 3.87 11.7 9.58 9.66 14.32-.1.25-.23.48-.35.72a50.4 50.4 0 0 1 5.72 5.23c.2-.17.39-.34.6-.5 3.96-2.96 9.44-1.86 12.24 2.47 2.8 4.33 1.86 10.25-2.11 13.22-.2.15-.41.28-.62.41 1.04 2.47 1.9 5.01 2.56 7.6.25-.04.5-.08.75-.1 4.83-.4 9.1 3.5 9.55 8.74.45 5.23-3.12 9.8-7.96 10.21-.25.03-.5.03-.74.03a54.7 54.7 0 0 1-1.26 7.92l.69.3c4.4 2.27 6.33 7.95 4.29 12.68-2.04 4.74-7.26 6.74-11.67 4.48a8.43 8.43 0 0 1-.66-.39 50.17 50.17 0 0 1-4.77 6.12c.16.21.32.42.47.65 2.8 4.33 1.85 10.25-2.12 13.22-3.96 2.97-12.55 1.6-15.35-2.72-.14-.22 2.83-.2 2.7-.42a44.52 44.52 0 0 1-6.99 2.67c.04.26.08.53.1.8.45 5.23-3.11 9.8-7.95 10.21-4.83.41-9.11-3.5-9.55-8.74-.02-.27-.03-.53-.03-.8a44.7 44.7 0 0 1-7.35-1.47c-.08.25-.17.5-.28.74-2.03 4.73-7.25 6.74-11.66 4.47-4.4-2.26-6.33-7.94-4.3-12.67.11-.25.23-.49.35-.72a50.37 50.37 0 0 1-5.72-5.23l-.6.49c-3.96 2.97-9.44 1.87-12.24-2.46-2.8-4.33-1.86-10.25 2.11-13.22.2-.15.41-.28.62-.41-1.04-2.47-1.9-5.01-2.56-7.6l-.74.1Zm49.7 20.92c17.56-1.48 30.5-18.08 28.89-37.08-1.6-19-17.13-33.2-34.69-31.73C44.03 34.71 31.1 51.31 32.7 70.31c1.6 19 17.13 33.21 34.68 31.73Z" fill="#BFC6D1"/><path d="M17.4 53.91c-4.4-2.26-6.33-7.93-4.3-12.67 2.04-4.74 7.27-6.74 11.67-4.48.23.12.45.26.67.4a50.33 50.33 0 0 1 4.77-6.13c-.16-.2-.32-.42-.47-.65-2.8-4.33-4.95-12.91-.7-15.46 8.07-4.83 12.27.38 15.06 4.7.15.23.27.46.4.69a44.52 44.52 0 0 1 7-2.68 9.82 9.82 0 0 1 2.3-8.19c1.07 8.19 2.08 16.38 3.02 24.58-15.06 3.8-25.57 19.05-24.12 36.29 1.23 14.6 10.7 26.37 22.98 30.36-.03 1.6-.07 3.2-.06 4.8.04 4.34.32 8.68.6 13.03-1.18-.25-2.36-.53-3.52-.87-.09.25-.17.5-.28.74-2.04 4.74-6.58 7.62-14.7 3.8-4.48-2.1-3.3-7.27-1.26-12 .1-.25.23-.49.35-.72a50.27 50.27 0 0 1-5.72-5.23c-.19.17-.39.33-.6.49-3.96 2.97-12.86 1.3-15.66-3.03-2.8-4.33 1.56-9.68 5.53-12.65.2-.15.41-.28.62-.42-1.04-2.46-1.9-5-2.57-7.6-.24.05-.48.08-.73.1-4.84.41-9.12-3.5-9.56-8.73-.44-5.24 3.12-9.81 7.96-10.22.25-.02.5-.02.74-.02a54.8 54.8 0 0 1 1.26-7.92 7.02 7.02 0 0 1-.68-.3Z" fill="#BFC6D1"/><path d="M13.17 79.86c-4.83.4-9.11-3.5-9.55-8.74-.45-5.23 3.12-9.8 7.95-10.22.25-.02.5-.02.74-.02a54.8 54.8 0 0 1 1.26-7.92l-.68-.31c-4.4-2.26-6.33-7.94-4.3-12.67 2.04-4.74 7.26-6.74 11.67-4.48.23.12.45.25.67.39a50.38 50.38 0 0 1 4.76-6.12c-.16-.21-.32-.42-.46-.65-2.8-4.33-1.85-10.25 2.11-13.22 3.97-2.97 9.45-1.86 12.25 2.46.15.23.27.45.4.68a44.53 44.53 0 0 1 7-2.67c-.05-.26-.09-.53-.11-.8-.44-5.23 3.12-9.8 7.95-10.21 4.84-.41 9.11 3.5 9.56 8.73l.03.81c2.48.28 4.94.77 7.34 1.47.09-.25.17-.5.28-.74 2.04-4.74 7.26-6.74 11.67-4.47 4.4 2.26 6.33 7.94 4.3 12.67l-.36.72a50.33 50.33 0 0 1 5.72 5.23l.6-.49c3.96-2.97 9.45-1.87 12.25 2.46 2.8 4.33 1.85 10.25-2.12 13.22-.2.15-.4.28-.62.41 1.04 2.47 1.9 5.01 2.57 7.6.24-.04.48-.08.74-.1 4.83-.4 9.11 3.5 9.55 8.74.44 5.24-3.12 9.8-7.95 10.22-.25.02-.5.02-.75.02a54.71 54.71 0 0 1-1.26 7.93l.69.3c4.4 2.27 6.33 7.94 4.3 12.68-2.04 4.74-7.27 6.74-11.67 4.47a8.9 8.9 0 0 1-.67-.38 50.33 50.33 0 0 1-4.77 6.12c.16.2.32.42.47.65 2.8 4.33 1.85 10.24-2.12 13.21-3.96 2.97-9.45 1.87-12.24-2.46-.15-.22-.27-.45-.4-.68a44.64 44.64 0 0 1-7 2.67c.05.27.09.53.1.8.45 5.24-3.11 9.81-7.95 10.22-4.83.4-9.1-3.5-9.55-8.74a9.82 9.82 0 0 1-.03-.8 44.7 44.7 0 0 1-7.34-1.47c-.09.24-.17.49-.28.73-2.04 4.74-7.26 6.74-11.67 4.48-4.4-2.27-6.33-7.94-4.3-12.68.11-.24.23-.48.36-.71a50.23 50.23 0 0 1-5.73-5.24 7.6 7.6 0 0 1-.59.5c-3.97 2.97-9.45 1.86-12.25-2.47-2.8-4.33-1.85-10.24 2.11-13.21.2-.15.42-.29.63-.42-1.04-2.47-1.9-5-2.57-7.6-.25.04-.5.08-.74.1Zm49.7 20.92c17.56-1.48 30.5-18.08 28.9-37.08-1.6-19-17.14-33.2-34.69-31.73C39.53 33.45 26.6 50.05 28.2 69.06c1.6 19 17.13 33.2 34.69 31.72Z" fill="#D8DEE8"/><path d="M99.22 60.18v44.78c0 1.49-1.02 2.67-2.27 2.64l-73.99-1.81c-1.14-.03-2.06-1.2-2.06-2.62V60.55l78.32-.37Z" fill="#fff"/><path d="m22.96 55.12 74-.6c1.24-.01 2.26 1.18 2.26 2.67v4.59l-78.32.28V57.7c0-1.42.92-2.58 2.06-2.58Z" fill="url(#h)"/><path d="M80.74 83.83 76.6 66.49c-6.23 2.42-10.72 9.41-10.75 17.68l14.89-.34Z" fill="url(#i)"/><path d="M69.68 85.3c.23 3.94 1.8 7.45 4.17 9.88l6.49-10.14-10.66.25ZM81.66 83.24c2.51-2.86 5.55-6.32 7.97-9.1a10.96 10.96 0 0 0-8.22-3.94c-.94 0-1.88.13-2.78.4l3.03 12.64ZM82.19 84.33l9.13 8.14a16.07 16.07 0 0 0 2.04-7.94c0-3.64-1.14-6.97-3.02-9.5l-2.23 2.55-5.92 6.75ZM81.93 85.6l.17 13c3.47-.17 6.56-2.13 8.62-5.16l-8.8-7.83ZM80.91 86.15l-6.26 9.79a10.7 10.7 0 0 0 6.43 2.66l-.17-12.45Z" fill="#F4F7FA"/><path d="m26.25 74.41 37.5.16V70.2l-37.5-.06v4.27ZM26.25 82.13l37.5.35v-4.37l-37.5-.24v4.26ZM26.25 89.86l37.5.53v-4.37l-37.5-.43v4.27ZM26.25 97.58l37.5.72v-4.37l-37.5-.62v4.27Z" fill="#D8DEE8"/><path d="M23.92 58.7c0 .65.45 1.18 1 1.18.56 0 1.01-.54 1.01-1.2 0-.66-.45-1.2-1-1.19-.56 0-1 .54-1 1.2ZM177.03 157.3v54.27c0 1.8-1.26 3.19-2.81 3.1l-91.05-5.47c-1.39-.08-2.51-1.53-2.51-3.24v-51.33l96.37 2.66Z" fill="#fff"/><path d="m83.17 148.17 91.05 2.17c1.55.04 2.8 1.53 2.8 3.33v5.56l-96.36-2.77v-5.26c0-1.7 1.12-3.06 2.52-3.03Z" fill="url(#j)"/><path d="m90.45 200.32 75.76 4.13v-37l-75.76-2.54v35.41Z" fill="#F4F7FA"/><path d="m90.45 200.32 75.75 4.13v-23.79c-2.48 16.06-5.12 19.5-7.1 19.57-2.8.1-4.31-6.5-8.54-6.87-4.2-.38-5.61 5.88-8.75 5.5-5.97-.72-7.6-24.18-12.43-24.53-3.83-.28-6.43 14.28-9.8 13.55-2.48-.54-3.08-8.75-4.94-8.74-1.7 0-1.77 6.75-4 7.28-3.26.77-6.44-12.95-10.94-13.22-2.48-.15-5.58 3.81-9.25 17.58v9.54Z" fill="url(#k)"/><path d="M83.73 152.36c0 .8.56 1.46 1.24 1.48.69.02 1.25-.61 1.25-1.41 0-.8-.56-1.46-1.25-1.48-.68-.02-1.24.62-1.24 1.41ZM253.04 57.34v77.81c0 2.58-1.88 4.65-4.19 4.6l-132.97-2.26c-2-.04-3.6-2-3.6-4.39V61.2l140.76-3.86Z" fill="#fff"/><path d="m115.88 51.95 132.97-4.35c2.31-.08 4.2 1.95 4.2 4.54v7.97l-140.77 3.65v-7.37c0-2.39 1.6-4.38 3.6-4.44Z" fill="url(#l)"/><path d="M116.2 57.95c0 1.14.83 2.04 1.86 2.02 1.02-.03 1.85-.99 1.85-2.13s-.83-2.04-1.85-2.02c-1.03.03-1.86.99-1.86 2.13Z" fill="#fff"/><path d="m224.3 129.27 10.47.12V71.56l-10.48.21v57.5Z" fill="#F4F7FA"/><path d="m224.3 129.27 10.47.12v-27.45l-10.48.03v27.3Z" fill="url(#m)"/><path d="m209.91 129.1 10.31.12V71.85l-10.3.21v57.04Z" fill="#F4F7FA"/><path d="m209.91 129.1 10.31.12v-13.61l-10.3-.05v13.54Z" fill="url(#n)"/><path d="m195.76 128.94 10.15.12V72.14l-10.15.2v56.6Z" fill="#F4F7FA"/><path d="m195.76 128.94 10.15.12v-7.1l-10.15-.07v7.05Z" fill="url(#o)"/><path d="m181.83 128.78 9.99.12V72.42l-10 .2v56.16Z" fill="#F4F7FA"/><path d="m181.83 128.78 9.99.12V84.65l-10 .14v43.99Z" fill="url(#p)"/><path d="m168.1 128.62 9.84.12V72.7l-9.83.2v55.72Z" fill="#F4F7FA"/><path d="m168.1 128.62 9.84.12V89.82l-9.83.1v38.7Z" fill="url(#q)"/><path d="m154.6 128.47 9.69.1v-55.6l-9.7.2v55.3Z" fill="#F4F7FA"/><path d="m154.6 128.47 9.69.1V81.07l-9.7.14v47.27Z" fill="url(#r)"/><path d="m141.29 128.31 9.54.11V73.24l-9.54.19v54.88Z" fill="#F4F7FA"/><path d="m141.29 128.31 9.54.11v-33.9l-9.54.08v33.71Z" fill="url(#s)"/><path d="m128.18 128.16 9.4.1V73.5l-9.4.19v54.47Z" fill="#F4F7FA"/><path d="m128.18 128.16 9.4.1v-19l-9.4-.01v18.91Z" fill="url(#t)"/><path d="M258.2 163.56v45.17c0 1.5-.97 2.66-2.19 2.6l-71.76-4.02c-1.11-.06-2-1.27-2-2.7v-43.12l75.96 2.07Z" fill="#fff"/><path d="m184.25 156.07 71.76 1.7c1.21.03 2.2 1.27 2.2 2.77v4.63l-75.97-2.14v-4.42c0-1.43.9-2.57 2-2.54Z" fill="url(#u)"/><path d="M185.7 159.53c0 .67.43 1.22.97 1.23.53.02.97-.51.97-1.18 0-.66-.43-1.21-.97-1.23-.54 0-.97.52-.97 1.18Z" fill="#fff"/><path d="M246.66 185.2a4.8 4.8 0 0 0-3.38-3.02l-.1-7.72c4.16.34 7.73 3.68 9.33 8.28l-5.85 2.46Z" fill="url(#v)"/><path d="M242.1 182.16c-1.98.3-3.53 2.26-3.72 4.77l-6.12.05c.08-6.82 4.33-12.24 9.74-12.54l.1 7.72ZM238.44 188.39c.36 2.59 2.15 4.62 4.32 4.72.62.03 1.24-.1 1.8-.4l3.26 6.74a8.62 8.62 0 0 1-5.06 1.35c-5.47-.28-9.94-5.7-10.45-12.36l6.13-.05ZM248.83 198.72l-3.27-6.73a5.84 5.84 0 0 0 1.61-4.19c0-.4-.03-.8-.1-1.2l5.85-2.46c.32 1.28.47 2.6.47 3.93 0 4.5-1.8 8.4-4.56 10.65ZM223.86 184.28c-.65-1.57-1.86-2.71-3.29-2.98l-.1-7.62c4.06.34 7.53 3.63 9.08 8.17l-5.69 2.43Z" fill="#D8DEE8"/><path d="M219.43 181.28c-1.93.3-3.43 2.23-3.61 4.7l-5.96.06c.08-6.73 4.21-12.07 9.47-12.37l.1 7.61Z" fill="url(#w)"/><path d="M215.87 187.43c.34 2.55 2.1 4.56 4.2 4.65.6.03 1.21-.1 1.75-.39l3.17 6.64a8.3 8.3 0 0 1-4.92 1.33c-5.32-.26-9.67-5.6-10.17-12.18l5.97-.05ZM225.97 197.62l-3.18-6.65a5.79 5.79 0 0 0 1.58-4.12c0-.4-.04-.8-.1-1.2l5.69-2.43c.3 1.27.45 2.57.45 3.88 0 4.44-1.75 8.28-4.44 10.52ZM201.68 183.38c-.63-1.54-1.8-2.67-3.2-2.93l-.09-7.52c3.95.33 7.33 3.58 8.84 8.05l-5.55 2.4ZM197.37 180.43c-1.87.29-3.34 2.2-3.51 4.64l-5.8.07c.07-6.65 4.1-11.92 9.22-12.22l.1 7.5ZM193.9 186.5c.34 2.5 2.05 4.49 4.09 4.58.6.03 1.18-.1 1.7-.39l3.1 6.55a8 8 0 0 1-4.8 1.32c-5.18-.26-9.41-5.52-9.9-12.01l5.81-.06Z" fill="#D8DEE8"/><path d="m203.74 196.54-3.1-6.55a5.8 5.8 0 0 0 1.54-4.08c0-.4-.04-.79-.1-1.18l5.53-2.4c.3 1.26.45 2.54.45 3.83 0 4.38-1.71 8.17-4.32 10.38Z" fill="url(#x)"/><defs><linearGradient id="a" x1="1.69" y1="25.76" x2="329.03" y2="58.22" gradientUnits="userSpaceOnUse"><stop stop-color="#7C4EAB"/><stop offset="1" stop-color="#DD51D4"/></linearGradient><linearGradient id="b" x1="152.17" y1="246.78" x2="170.66" y2="254.55" gradientUnits="userSpaceOnUse"><stop stop-color="#40447E"/><stop offset="1" stop-color="#3C3B6B"/></linearGradient><linearGradient id="c" x1="-230699" y1="261614" x2="-201362" y2="280081" gradientUnits="userSpaceOnUse"><stop stop-color="#40447E"/><stop offset="1" stop-color="#3C3B6B"/></linearGradient><linearGradient id="d" x1="-77054.5" y1="266460" x2="-406545" y2="266460" gradientUnits="userSpaceOnUse"><stop stop-color="#40447E"/><stop offset="1" stop-color="#3C3B6B"/></linearGradient><linearGradient id="e" x1="94.53" y1="137.43" x2="289.1" y2="168.15" gradientUnits="userSpaceOnUse"><stop stop-color="#7C4EAB"/><stop offset="1" stop-color="#DD51D4"/></linearGradient><linearGradient id="f" x1="-116214" y1="67793.7" x2="-863973" y2="67793.7" gradientUnits="userSpaceOnUse"><stop stop-color="#40447E"/><stop offset="1" stop-color="#3C3B6B"/></linearGradient><linearGradient id="g" x1="-66818.6" y1="39492.8" x2="-468241" y2="39492.8" gradientUnits="userSpaceOnUse"><stop stop-color="#40447E"/><stop offset="1" stop-color="#3C3B6B"/></linearGradient><linearGradient id="h" x1="-211467" y1="6619.22" x2="-211097" y2="12898.6" gradientUnits="userSpaceOnUse"><stop stop-color="#FFC444"/><stop offset="1" stop-color="#F36F56"/></linearGradient><linearGradient id="i" x1="-116045" y1="19049.9" x2="-112461" y2="29729.3" gradientUnits="userSpaceOnUse"><stop stop-color="#FFC444"/><stop offset="1" stop-color="#F36F56"/></linearGradient><linearGradient id="j" x1="120.63" y1="141.12" x2="164.99" y2="213.65" gradientUnits="userSpaceOnUse"><stop stop-color="#AA80F9"/><stop offset="1" stop-color="#6165D7"/></linearGradient><linearGradient id="k" x1="-140207" y1="69579.8" x2="-141433" y2="86384.6" gradientUnits="userSpaceOnUse"><stop stop-color="#AA80F9"/><stop offset="1" stop-color="#6165D7"/></linearGradient><linearGradient id="l" x1="171.63" y1="39.21" x2="231.25" y2="136.69" gradientUnits="userSpaceOnUse"><stop stop-color="#FF9085"/><stop offset="1" stop-color="#FB6FBB"/></linearGradient><linearGradient id="m" x1="-5025.41" y1="28566.2" x2="2338.02" y2="37334.5" gradientUnits="userSpaceOnUse"><stop stop-color="#FF9085"/><stop offset="1" stop-color="#FB6FBB"/></linearGradient><linearGradient id="n" x1="-6253.82" y1="16544.4" x2="-4778.55" y2="20019.1" gradientUnits="userSpaceOnUse"><stop stop-color="#FF9085"/><stop offset="1" stop-color="#FB6FBB"/></linearGradient><linearGradient id="o" x1="-7578.59" y1="9301.93" x2="-7293.72" y2="10560.2" gradientUnits="userSpaceOnUse"><stop stop-color="#FF9085"/><stop offset="1" stop-color="#FB6FBB"/></linearGradient><linearGradient id="p" x1="-9777.2" y1="36782.6" x2="7665.61" y2="49079.3" gradientUnits="userSpaceOnUse"><stop stop-color="#FF9085"/><stop offset="1" stop-color="#FB6FBB"/></linearGradient><linearGradient id="q" x1="-10983.4" y1="34821.2" x2="3067" y2="45908.3" gradientUnits="userSpaceOnUse"><stop stop-color="#FF9085"/><stop offset="1" stop-color="#FB6FBB"/></linearGradient><linearGradient id="r" x1="-12423.7" y1="37484.7" x2="6803.04" y2="49719.6" gradientUnits="userSpaceOnUse"><stop stop-color="#FF9085"/><stop offset="1" stop-color="#FB6FBB"/></linearGradient><linearGradient id="s" x1="-13338.7" y1="32311.8" x2="-2370.42" y2="41948.6" gradientUnits="userSpaceOnUse"><stop stop-color="#FF9085"/><stop offset="1" stop-color="#FB6FBB"/></linearGradient><linearGradient id="t" x1="-14181.1" y1="21584.5" x2="-10796.3" y2="26804.9" gradientUnits="userSpaceOnUse"><stop stop-color="#FF9085"/><stop offset="1" stop-color="#FB6FBB"/></linearGradient><linearGradient id="u" x1="213.69" y1="150.65" x2="248.89" y2="208.21" gradientUnits="userSpaceOnUse"><stop stop-color="#E38DDD"/><stop offset="1" stop-color="#9571F6"/></linearGradient><linearGradient id="v" x1="-6005.78" y1="23923.2" x2="-4235.14" y2="26366.4" gradientUnits="userSpaceOnUse"><stop stop-color="#FF9085"/><stop offset="1" stop-color="#FB6FBB"/></linearGradient><linearGradient id="w" x1="-9000.58" y1="27682.8" x2="-9454.91" y2="34408.4" gradientUnits="userSpaceOnUse"><stop stop-color="#FFC444"/><stop offset="1" stop-color="#F36F56"/></linearGradient><linearGradient id="x" x1="-7841.15" y1="32783.9" x2="-6729.6" y2="39372.2" gradientUnits="userSpaceOnUse"><stop stop-color="#AA80F9"/><stop offset="1" stop-color="#6165D7"/></linearGradient></defs></svg>
<svg id="arrow" width="14" height="14" fill="none" xmlns="http://www.w3.org/2000/svg"><path d="M1.038 9.113C.702 9.24.53 9.618.69 9.94a6.607 6.607 0 1 0 .429-6.618c-.2.298-.079.695.238.865.317.17.708.047.915-.246a5.305 5.305 0 1 1-.358 5.534c-.168-.318-.54-.49-.876-.362Z" fill="#fff"/><path d="M.826 6.483a.517.517 0 0 0 0 1.034V6.483Zm8.624.883a.517.517 0 0 0 0-.732l-3.29-3.29a.517.517 0 0 0-.732.731L8.353 7 5.428 9.925a.517.517 0 0 0 .732.731l3.29-3.29Zm-8.624.151h8.258V6.483H.826v1.034Z" fill="#fff"/></svg>
<svg id="creator" width="39" height="39" fill="none" xmlns="http://www.w3.org/2000/svg"><g clip-path="url(#a)" fill="#fff"><path d="M19.55 38.26c-.7-.16-1.35-.38-1.79-.98-.27-.38-.48-.86-.7-1.3-.1-.22-.16-.32-.38-.38a16.1 16.1 0 0 1-9.43-5.64c-.16-.21-.33-.21-.54-.16a2.91 2.91 0 0 1-3.53-1.35c-.7-1.3-.43-2.88.76-3.74.22-.17.27-.33.16-.6-.97-3.2-.97-6.45 0-9.65.06-.21.06-.38-.16-.54a2.87 2.87 0 0 1-.81-3.74A2.9 2.9 0 0 1 6.7 8.82c.27.11.38 0 .54-.16a16.1 16.1 0 0 1 9.27-5.58c.32-.06.54-.16.65-.6.21-1.3 1.46-2.17 2.82-2.17A2.9 2.9 0 0 1 22.8 2.6c.06.33.22.43.5.49 2.21.43 4.22 1.3 6.06 2.6 1.25.87 2.33 1.84 3.26 2.98.16.22.32.27.6.16 1.3-.48 2.81.11 3.52 1.3a2.9 2.9 0 0 1-.7 3.75c-.23.16-.28.32-.23.6.98 3.19.98 6.44 0 9.64-.05.22-.05.38.17.54a3.02 3.02 0 0 1 .92 3.58c-.6 1.3-2 2.06-3.3 1.68-.6-.16-.88 0-1.26.43a16.22 16.22 0 0 1-8.94 5.2c-.32.06-.54.22-.6.6a2.96 2.96 0 0 1-2.16 2.12c-.11 0-.17.05-.27.05-.33-.05-.55-.05-.82-.05Zm.38-27.27a8.33 8.33 0 0 0-8.3 8.3c0 4.55 3.75 8.29 8.3 8.29 4.55 0 8.3-3.74 8.3-8.3 0-4.55-3.75-8.29-8.3-8.29Zm-2.82-6.83c-3.74.7-6.77 2.55-9.16 5.48.65.81.87 1.68.65 2.65 0 .11.11.22.17.27l2.11 1.14c.32.17.65.38.98.55 1.95-2.88 4.6-4.45 8.07-4.45 3.47 0 6.07 1.63 8.02 4.45.93-.5 1.8-.98 2.66-1.47.43-.22.7-.43.6-1.03-.17-.81.16-1.52.7-2.17a15.07 15.07 0 0 0-9.16-5.47 2.94 2.94 0 0 1-2.28 2.06v2.38h-1.19V6.17a3 3 0 0 1-2.17-2ZM7.95 28.93a15.23 15.23 0 0 0 9.16 5.48 3.03 3.03 0 0 1 2.28-2.06v-2.39h1.2v2.39c1.13.27 1.84.98 2.21 2.06a15.33 15.33 0 0 0 9.17-5.48c-.7-1.08-.76-1.4-.66-2.65 0-.11-.05-.22-.1-.27-1.03-.6-2.12-1.14-3.2-1.74-1.95 2.88-4.6 4.45-8.08 4.45-3.47 0-6.12-1.63-8.07-4.45-1.09.6-2.12 1.14-3.15 1.74-.05.05-.16.16-.1.27a3.08 3.08 0 0 1-.66 2.65Zm3.36-5.69a9.72 9.72 0 0 1 0-7.96c-1.14-.6-2.22-1.25-3.36-1.85a3.05 3.05 0 0 1-2.7 1.03c-.98 3.2-.98 6.34 0 9.54a3.2 3.2 0 0 1 2.7 1.03 50.5 50.5 0 0 0 3.36-1.79Zm20.6 1.85c.7-.7 1.52-1.14 2.55-1.09.05 0 .22-.16.27-.21.54-1.74.76-3.47.65-5.32a12.49 12.49 0 0 0-.76-3.95c-1.03.1-1.9-.22-2.6-.93-.05-.05-.22-.05-.33 0-.48.28-.97.55-1.4.76-.55.33-1.14.6-1.69.93a9.72 9.72 0 0 1 0 7.96 64.8 64.8 0 0 0 3.31 1.85ZM19.93 5.03a1.8 1.8 0 0 0 1.8-1.73c0-.98-.77-1.8-1.74-1.8a1.8 1.8 0 0 0-1.8 1.8c-.05.92.77 1.73 1.74 1.73ZM7.46 11.59A1.8 1.8 0 0 0 5.68 9.8a1.8 1.8 0 0 0-1.8 1.79c0 .97.82 1.73 1.8 1.73 1.03 0 1.78-.8 1.78-1.73Zm28.46 0A1.8 1.8 0 0 0 34.2 9.8c-.98 0-1.8.76-1.8 1.73 0 .98.82 1.8 1.8 1.8.92.05 1.73-.77 1.73-1.74ZM7.46 26.99a1.8 1.8 0 0 0-1.78-1.8 1.8 1.8 0 0 0-1.8 1.8c0 .97.82 1.78 1.8 1.78 1.03 0 1.78-.81 1.78-1.79Zm28.46 0a1.8 1.8 0 0 0-1.73-1.8c-.98 0-1.8.76-1.8 1.74 0 .97.82 1.79 1.8 1.79.92.05 1.73-.76 1.73-1.74Zm-15.99 6.55a1.8 1.8 0 0 0-1.79 1.74c0 .97.82 1.79 1.8 1.79a1.8 1.8 0 0 0 1.78-1.8c0-.97-.81-1.73-1.79-1.73Z"/><path d="M18.04 18.58c-1.14-1.03-1.3-2.28-.98-3.63a2.98 2.98 0 0 1 3.09-2.22c1.57.16 2.6 1.35 2.71 2.92.05 1.09-.16 2.06-1.08 2.88.16.1.32.27.48.38.87.54 1.8 1.08 2.66 1.57.22.1.32.27.27.54v1.57c.05.7-.32 1.2-.92 1.41-.6.22-1.25.38-1.84.44-1.96.16-3.96.21-5.91-.11a6.54 6.54 0 0 1-.98-.27c-.65-.28-1.03-.76-.97-1.47v-1.62c0-.22.05-.33.21-.44l2.71-1.62c.22-.06.38-.17.55-.33Zm1.57 4.88c1.08-.05 1.84-.05 2.6-.1.49-.06 1.03-.17 1.52-.28.27-.05.32-.22.32-.49.16-.86-.16-1.46-1.03-1.79-.1-.05-.21-.1-.27-.16-.65-.43-1.3-.92-1.95-1.35-.05-.06-.22-.06-.33-.06h-1.24c-.11 0-.27 0-.33.06-.7.75-1.62 1.19-2.5 1.68-.53.32-.8.65-.7 1.3.06.76.06.76.76.97h.11c1.2.06 2.28.17 3.04.22Zm-1.47-7.48v.49c.06.92.82 1.57 1.68 1.62.87.06 1.68-.54 1.8-1.4.05-.5.05-.98-.06-1.42A1.77 1.77 0 0 0 19 14.2c-.6.38-.87 1.03-.87 1.79ZM20.53 3.84h-1.14V2.7h1.14v1.14ZM6.27 12.13H5.13v-1.14h1.14v1.14ZM34.73 11v1.13h-1.14v-1.14h1.14ZM6.27 27.58H5.13v-1.14h1.14v1.14ZM34.73 26.44v1.14h-1.14v-1.14h1.14ZM20.53 34.73v1.14h-1.14v-1.14h1.14Z"/></g><defs><clipPath id="a"><path fill="#fff" transform="translate(.98 .31)" d="M0 0h38v38H0z"/></clipPath></defs></svg>
<svg id="dropdown" width="11" height="9" fill="none" xmlns="http://www.w3.org/2000/svg"><path d="M6.47 8.43a1.1 1.1 0 0 1-1.85 0L.93 2.6A1.1 1.1 0 0 1 1.86.92h7.38c.85 0 1.38.95.92 1.67l-3.7 5.84Z" fill="#331A2F" fill-opacity=".9"/></svg>
<svg id="ellipse1" width="23" height="337" fill="none" xmlns="http://www.w3.org/2000/svg"><ellipse rx="217.3" ry="217.6" transform="matrix(-1 0 0 1 -205.7 107.6)" fill="url(#a)" fill-opacity=".8"/><ellipse rx="217.3" ry="217.6" transform="matrix(-1 0 0 1 -194.3 119)" fill="url(#b)" fill-opacity=".2"/><defs><linearGradient id="a" x1="434.6" y1="41.5" x2="-95.6" y2="94.3" gradientUnits="userSpaceOnUse"><stop stop-color="#7C4EAB"/><stop offset="1" stop-color="#DD51D4"/></linearGradient><linearGradient id="b" x1="434.6" y1="41.5" x2="-95.6" y2="94.3" gradientUnits="userSpaceOnUse"><stop stop-color="#7C4EAB"/><stop offset="1" stop-color="#DD51D4"/></linearGradient></defs></svg>
<svg id="ellipse2" width="41" height="761" fill="none" xmlns="http://www.w3.org/2000/svg"><ellipse rx="369.8" ry="370.3" transform="matrix(-1 0 0 1 369.8 390.2)" fill="url(#a)" fill-opacity=".2"/><ellipse rx="369.8" ry="370.3" transform="matrix(-1 0 0 1 389.2 370.8)" fill="url(#b)" fill-opacity=".8"/><defs><linearGradient id="a" x1="739.6" y1="70.7" x2="-162.6" y2="160.6" gradientUnits="userSpaceOnUse"><stop stop-color="#7C4EAB"/><stop offset="1" stop-color="#DD51D4"/></linearGradient><linearGradient id="b" x1="739.6" y1="70.7" x2="-162.6" y2="160.6" gradientUnits="userSpaceOnUse"><stop stop-color="#7C4EAB"/><stop offset="1" stop-color="#DD51D4"/></linearGradient></defs></svg>
<svg id="friends" width="38" height="38" fill="none" xmlns="http://www.w3.org/2000/svg"><path d="M10.56 37.33c-.68-.3-1-.77-.91-1.53v-1.23h-5.9c-.92 0-1.38-.45-1.38-1.37v-1.15c0-.38.23-.61.54-.61.3 0 .54.23.54.6v1.16c0 .15.07.23.23.23h5.97V29.9c-1.46-.92-1.92-1.53-2.15-3.22-.92 0-1.83-.07-2.68 0-.76.08-1.3.92-1.37 1.76v1.07c0 .39-.23.62-.54.62-.3 0-.54-.23-.54-.62V28.3c.08-.92.54-1.68 1.3-2.22.08-.08.16-.08.24-.15-.31-1-.7-1.92-.92-2.84A16.26 16.26 0 0 1 5.36 9.47c.15-.23.23-.38.08-.69a1.98 1.98 0 0 1 .38-2.3 1.98 1.98 0 0 1 2.3-.45c.15.15.3.07.45-.08.92-.61 1.76-1.22 2.68-1.84.39-.23.7-.15.84.16.16.3 0 .53-.3.76-.84.61-1.69 1.15-2.53 1.76-.15.08-.15.23-.07.39.3.76.15 1.53-.39 2.06-.53.61-1.22.84-2.06.61-.23-.07-.3 0-.46.16a15.03 15.03 0 0 0-2.68 7.42c-.3 2.76.15 5.36 1.22 7.88.08.23.23.31.54.31H8.5c.07-.3 0-.46-.16-.61a4.4 4.4 0 0 1-1.68-2.83c0-.23-.08-.31-.3-.39a1.89 1.89 0 0 1-.85-3.13c.08-.08.16-.31.16-.46v-3.37c0-1.68 1.07-2.9 2.6-3.22.23-.07.53-.07.76-.07h3.45c.76 0 1.53.23 2.14.76.08.08.23.08.3.08.7-.3 1.38-.38 2.15-.38h1.07c.3 0 .54.23.61.53 0 .3-.23.54-.6.54h-1.62a2.6 2.6 0 0 0-2.6 2.45c-.07 1.15 0 2.3 0 3.44v.15c.3.08.3-.07.38-.3.16-.84.46-1.6.92-2.3.3-.38.46-.46.92-.3 1.46.46 2.83.84 4.36 1 .39 0 .85 0 1.23-.09a2 2 0 0 0 .69-.38c.3-.3.69-.3.92.08.38.61.68 1.3.76 1.99 0 .15.08.38.3.3V16.6c0-.38-.07-.61-.53-.61-.3-.08-.46-.3-.46-.62 0-.6-.23-1.07-.61-1.53a2.17 2.17 0 0 0-1.68-.76h-.62a.52.52 0 0 1-.53-.54c0-.3.23-.53.53-.53.85-.08 1.69.07 2.38.46.76-.77 1.68-1 2.67-.92h3.37c1.46 0 2.6.92 2.99 2.3 0 .07.07.22.23.3.46.3.69.77.69 1.3v2.6c0 .16.07.39.22.46 1 1.07.54 2.68-.84 3.14-.23.08-.23.15-.3.3a4.93 4.93 0 0 1-1.69 2.91c-.15.08-.15.31-.3.46l.07.08H33.22c.3 0 .38-.08.53-.3a16.14 16.14 0 0 0 1.23-7.81 15.73 15.73 0 0 0-2.6-7.35c-.16-.23-.31-.3-.54-.23-.77.23-1.45 0-1.99-.61a1.88 1.88 0 0 1-.38-2.07c-.08 0-.16-.15-.3-.3a16.2 16.2 0 0 0-7.59-3.37c-.3-.08-.45 0-.6.3-.77 1.38-2.76 1.3-3.53 0-.15-.22-.3-.3-.53-.22l-2.76.68a.84.84 0 0 1-.61 0c-.15-.07-.3-.3-.23-.45.08-.16.23-.46.38-.46.92-.31 1.76-.46 2.68-.7h.15c.46 0 .7-.15.85-.6.38-.92 1.07-1.3 1.99-1.3.84.07 1.53.45 1.83 1.3.16.3.3.38.61.45 3.07.46 5.74 1.61 8.12 3.6.23.15.38.23.69.08.76-.3 1.68-.08 2.22.53.53.62.68 1.53.3 2.3-.08.15-.15.3 0 .54 3.45 5.12 3.9 10.56 1.6 16.3 0 .07-.07.15-.07.23.16.07.23.15.38.3a2.87 2.87 0 0 1 1.15 2.37v4.67c0 .92-.46 1.38-1.37 1.38h-5.9v1.23c.08.76-.23 1.22-.92 1.53-5.89-.08-11.63-.08-17.45-.08Zm12.56-8.73c-.23 2.45-2.07 3.76-3.83 3.76-.92 0-1.68-.23-2.37-.85a3.85 3.85 0 0 1-1.53-2.98h-2.45c-1.38 0-2.22.84-2.22 2.22v5.05c0 .3.07.46.46.46h16.3c.15 0 .38.07.38-.23v-5.44c0-.99-.84-1.9-1.76-1.9-1.07-.16-1.99-.09-2.98-.09Zm-.23-10.48c-2.45.84-4.6-.08-6.82-.61-.07.07-.15.15-.15.3a2.98 2.98 0 0 0-.53 1.76c0 1.3-.08 2.6.07 3.83a3.8 3.8 0 0 0 4.06 3.3 3.83 3.83 0 0 0 3.6-3.76V19.5c0-.46-.16-.92-.23-1.38ZM7.96 16.97c-.07.46-.23.84-.3 1.23a27.02 27.02 0 0 0 0 3.52A3.42 3.42 0 0 0 14 23.25c-.08 0-.15-.08-.15-.08-1.3-.53-1.77-1.76-1.08-2.98 0-.08.08-.08.08-.16v-2.22c-1.68 0-3.21-.38-4.9-.84ZM34.98 33.5v-5.12c0-.77-.61-1.54-1.38-1.61-.92-.08-1.76 0-2.68 0-.23 1.68-.69 2.37-2.14 3.21v3.52h6.2ZM24.49 23.17c0 .08.08.15.08.15a3.53 3.53 0 0 0 3.6 1.46c1.45-.38 2.52-1.53 2.6-2.99a23.6 23.6 0 0 0 0-3.29c0-.38-.15-.84-.15-1.22-1.76.84-3.37.3-5.06 0v2.3c0 .22.08.38.16.53.53 1.07.15 2.37-1 2.83-.07.15-.15.23-.23.23Zm-.69-9.95.7 1.6c.07.24.15.32.3.47.23.23.46.46.69.76l.3.31c.54.15 1 .3 1.53.3.77.08 1.46.08 2.22 0 .23 0 .39-.3.54-.45.15-.16.3-.39.46-.39.15 0 .38.16.54.31.22.3.38.61.53 1v-1.61c0-.08-.15-.23-.23-.3-.38-.08-.53-.31-.53-.7-.08-1-.85-1.76-1.84-1.76h-3.9c-.54-.07-1 .16-1.3.46ZM6.81 16.97c.16-.23.31-.46.39-.69.3-.46.46-.53 1-.38.76.23 1.52.38 2.29.61.76.16 1.6.3 2.45.16-.08-1.3.07-2.53 1-3.45-.4-.3-.77-.46-1.23-.46H8.88c-1.15 0-1.99.77-2.07 1.92-.07.68 0 1.53 0 2.3Zm14.01 10.56a5.1 5.1 0 0 1-3.21 0c.22.92-.31 1.15-1.08 1a2.86 2.86 0 0 0 2.84 2.75c1.53-.07 2.75-1.3 2.67-2.68-.3-.07-.68-.07-.84-.22-.3-.16-.3-.54-.38-.85Zm-10.8 1.38c.4-.38.77-.69 1.16-1a3.49 3.49 0 0 1 1.99-.45c.15 0 .3-.08.3-.16.08-.15.08-.38.16-.68-.7.07-1.15-.08-1.08-.92-1 .3-1.9.3-2.83.07-.07.3-.15.62-.3.77-.16.15-.54.15-.77.23-.08.84.54 1.76 1.38 2.14Zm15.93-3.14c-.16.77-.16.77-1 .92-.07.69 0 .77.7.77a3 3 0 0 1 2.21.84c.23.15.38.38.61.61.92-.38 1.61-1.45 1.46-2.22-.84-.07-.92 0-1-.92-1.07.3-1.99.23-2.98 0ZM7.27 8.94c.54 0 1-.46 1-1 0-.53-.46-1-.92-1-.54 0-1 .39-1 .92a.93.93 0 0 0 .92 1.08Zm11.94-5.36c.54 0 1-.46 1-1 0-.53-.46-.91-1-1-.53 0-1 .47-1 1 .08.62.47 1 1 1Zm12.02 5.36c.53 0 1-.46 1-1 0-.53-.39-.92-.93-1-.53 0-.99.39-.99.92a.93.93 0 0 0 .92 1.08ZM16.46 27.46c.07-.46-.08-.77-.39-.77-.45-.07-.91 0-1.45 0 0 .3-.08.54-.08.77h1.92Zm7.34-.77h-1.14c-.54 0-.77.23-.62.77h1.92c-.08-.3-.08-.54-.16-.77Zm1.08-1.15c0-.69-.7-.76-.92-1.22l-.61 1.22h1.53Zm-9.8 0c-.23-.38-.38-.76-.61-1.14-.23.23-.39.38-.62.53-.22.15-.45.3-.3.61h1.53Zm-.84-3.44v-1.76c-.46.08-.7.38-.7.76 0 .46.24.85.7 1Zm9.95-1.76v1.76c.46-.08.69-.46.69-.84.07-.46-.23-.77-.7-.92Zm-17.6-1.07a.8.8 0 0 0-.54.76c0 .3.15.54.53.7v-1.46Zm25.33 1.45c.38-.15.53-.38.53-.76 0-.3-.15-.54-.53-.7v1.46Z" fill="#fff"/></svg>
<svg id="logo" width="36" height="19" fill="none" xmlns="http://www.w3.org/2000/svg"><mask id="b" style="mask-type:alpha" maskUnits="userSpaceOnUse" x="0" y="0" width="36" height="19"><ellipse cx="17.55" cy="9.57" rx="17.55" ry="8.87" fill="url(#a)"/></mask><g mask="url(#b)"><ellipse cx="17.55" cy="9.57" rx="17.55" ry="8.87" fill="url(#c)"/><path d="M23.13 12.03V2.17a5.04 5.04 0 0 1 .13-1.04l-16.1 10.9h15.97Zm14.91 0v.7c0 .09-.06.17-.18.23-.11.05-.29.08-.53.08h-12v5.4h-2.2v-5.4H5.52c-.26 0-.47-.03-.6-.08a.58.58 0 0 1-.3-.24l-.23-.62L23.1-.41h2.24v12.44h12.7Z" fill="#fff"/></g><defs><linearGradient id="a" x1="40.36" y1="-4.63" x2="30.34" y2="25.23" gradientUnits="userSpaceOnUse"><stop stop-color="#F0A"/><stop offset="1" stop-color="#8912DE"/></linearGradient><linearGradient id="c" x1="40.36" y1="-4.63" x2="30.34" y2="25.23" gradientUnits="userSpaceOnUse"><stop stop-color="#F0A"/><stop offset="1" stop-color="#8912DE"/></linearGradient></defs></svg>
<svg id="phone" width="17" height="17" fill="none" xmlns="http://www.w3.org/2000/svg"><path d="m11.1 11.51 1.35-1.34a1.32 1.32 0 0 1 1.4-.29l1.64.66a1.31 1.31 0 0 1 .82 1.2v3a1.3 1.3 0 0 1-1.37 1.28C3.44 15.31 1.12 5.6.7 1.88A1.3 1.3 0 0 1 1.99.44h2.9a1.3 1.3 0 0 1 1.2.81l.66 1.64a1.3 1.3 0 0 1-.28 1.4L5.12 5.63s.78 5.24 5.98 5.88Z" fill="#331A2F"/></svg>
<svg id="site" width="39" height="39" fill="none" xmlns="http://www.w3.org/2000/svg"><g clip-path="url(#a)" fill="#fff"><path d="M2.55 32.45h17.1v1.9c0 1.05.85 1.9 1.9 1.9h2.53a1.9 1.9 0 0 0 1.44-.66h.03c.46.43 1.06.66 1.7.66h7.6a1.9 1.9 0 0 0 1.9-1.9c0-.32-.1-.65-.26-.93a1.87 1.87 0 0 0 .63-2.53c.48-.3.8-.8.87-1.34.08-.56-.1-1.12-.47-1.53.5-.55.63-1.35.33-2.04a1.91 1.91 0 0 0-1.75-1.13h-1.9V5.22c0-1.4-1.13-2.53-2.53-2.53H2.55A2.54 2.54 0 0 0 .02 5.22v24.7c0 1.4 1.13 2.53 2.53 2.53ZM24.08 35h-2.53a.64.64 0 0 1-.64-.64v-5.7c0-.34.3-.63.64-.63h2.53c.35 0 .63.29.63.63v5.7c0 .35-.28.64-.63.64Zm12.67-8.24c0 .35-.29.64-.64.64h-1.9a.64.64 0 0 0-.63.63c0 .35.29.63.63.63h1.9c.35 0 .64.3.64.64s-.29.63-.64.63h-1.9a.64.64 0 0 0-.63.63c0 .35.29.64.63.64h1.27c.35 0 .63.28.63.63s-.28.63-.63.63h-1.27a.64.64 0 0 0-.63.64c0 .34.29.63.63.63h.64c.34 0 .63.29.63.63 0 .35-.29.64-.63.64h-7.6c-.7 0-1.27-.57-1.27-1.27V28.4c.8-.5 1.39-1.26 1.68-2.14.57-1.7.85-3.46.85-5.24a.2.2 0 0 1 .14-.2c.22-.03.78-.13 1.32.92.3.6.44 1.26.43 1.95v1.8c0 .35.3.64.64.64h5.06c.36 0 .65.29.65.63Zm-5.07-1.9v-1.17a5.58 5.58 0 0 0-.57-2.53c-.63-1.21-1.58-1.78-2.68-1.58-.69.13-1.18.73-1.18 1.44 0 1.64-.27 3.28-.78 4.84a2.8 2.8 0 0 1-1.1 1.43c-.35-.33-.81-.5-1.29-.52h-2.53a1.9 1.9 0 0 0-1.9 1.9v2.54H2.55c-.7 0-1.27-.57-1.27-1.27V9.03h31.67v15.82h-1.27ZM2.55 3.95h29.13c.7 0 1.27.57 1.27 1.27v2.54H1.28V5.22c0-.7.57-1.26 1.27-1.26Z"/><path fill-rule="evenodd" clip-rule="evenodd" d="M3.82 5.86c0 .34-.3.63-.64.63a.64.64 0 0 1-.63-.63c0-.35.29-.64.63-.64.35 0 .64.29.64.64ZM6.35 5.86c0 .34-.29.63-.63.63a.64.64 0 0 1-.64-.63c0-.35.29-.64.64-.64.34 0 .63.29.63.64ZM8.88 5.86c0 .34-.29.63-.63.63a.64.64 0 0 1-.63-.63c0-.35.28-.64.63-.64.34 0 .63.29.63.64Z"/><path d="M5.08 22.32h10.13a1.9 1.9 0 0 0 1.9-1.9v-7.6a1.9 1.9 0 0 0-1.9-1.9H5.08a1.9 1.9 0 0 0-1.9 1.9v7.6c0 1.05.85 1.9 1.9 1.9Zm1.56-1.26 2.92-4.62 1.41 1.77-1.8 2.85H6.64Zm8.57 0h-4.54l3.34-5.25 1.84 2.3v2.32c0 .34-.29.63-.63.63ZM4.46 12.82c0-.34.29-.63.63-.63h10.13c.35 0 .64.29.64.63v3.27l-1.4-1.76a.64.64 0 0 0-.53-.24.64.64 0 0 0-.5.3l-1.72 2.69-1.69-2.12a.64.64 0 0 0-.52-.24.64.64 0 0 0-.5.3l-3.85 6.04h-.06a.64.64 0 0 1-.63-.64v-7.6Z"/><path fill-rule="evenodd" clip-rule="evenodd" d="M6.98 14.09c0 .34-.29.63-.63.63a.64.64 0 0 1-.64-.63c0-.35.3-.63.64-.63s.63.28.63.63ZM30.41 11.55H19.65a.64.64 0 0 0-.64.64c0 .34.3.63.64.63H30.4c.35 0 .64-.29.64-.63a.64.64 0 0 0-.64-.64ZM30.41 14.09H19.65a.64.64 0 0 0-.64.63c0 .35.3.64.64.64H30.4c.35 0 .64-.3.64-.64a.64.64 0 0 0-.64-.63ZM30.41 16.62H19.65a.64.64 0 0 0-.64.63c0 .35.3.64.64.64H30.4c.35 0 .64-.29.64-.64a.64.64 0 0 0-.64-.63ZM25.35 19.16h-5.7a.64.64 0 0 0-.64.63c0 .35.3.63.64.63h5.7c.34 0 .63-.29.63-.63a.64.64 0 0 0-.63-.63ZM18.38 24.85H3.81a.64.64 0 0 0-.63.64c0 .34.29.63.63.63h14.57c.35 0 .64-.29.64-.63a.64.64 0 0 0-.64-.64ZM16.48 27.39H3.81a.64.64 0 0 0-.63.63c0 .35.29.63.63.63h12.67c.35 0 .63-.28.63-.63a.64.64 0 0 0-.63-.63Z"/></g><defs><clipPath id="a"><path fill="#fff" transform="translate(.02 .31)" d="M0 0h38v38H0z"/></clipPath></defs></svg>
<svg id="target" width="38" height="38" fill="none" xmlns="http://www.w3.org/2000/svg"><g clip-path="url(#a)" fill="#fff"><path d="m27.61 11.52-3.27 3.26a6.82 6.82 0 0 1 1.31 5.82 6.6 6.6 0 0 1-2.79 3.98 6.73 6.73 0 0 1-8.85-.95 6.66 6.66 0 0 1-.23-8.96 6.81 6.81 0 0 1 9.44-1.07c1.06-1.07 2.13-2.14 3.2-3.27a11.3 11.3 0 0 0-6.7-2.73v2.08c0 .6-.3.95-.78.95-.47 0-.77-.36-.77-.95V4.57c-1.49.06-2.91.36-4.28.9a14.3 14.3 0 0 0-9.02 10.32c0 .12-.06.18-.06.3a.79.79 0 0 1-.9.6c-.4-.12-.64-.48-.58-.96.41-2.13 1.24-4.1 2.49-5.81 2.97-3.98 6.83-6.3 11.76-6.77.17 0 .41-.06.65-.06V1.07c0-.71.24-1.07.77-1.07.48 0 .77.36.77 1v5.12c2.97.23 5.58 1.3 7.78 3.2.36-.35.65-.71 1.07-1.13-.77-.53-1.49-1.12-2.32-1.6a13.27 13.27 0 0 0-4.15-1.66c-.12 0-.24-.06-.3-.06a.76.76 0 0 1-.53-.95c.11-.42.47-.65.95-.54a13.9 13.9 0 0 1 5.22 2.14c.77.54 1.49 1.07 2.38 1.72.06-.23.23-.41.23-.59V4.22c0-.3.12-.66.36-.84.95-1 1.96-2.01 2.97-3.02.3-.3.6-.42.95-.24.35.12.47.47.47.83v2.32h2.32c.41 0 .71.11.89.47.12.42 0 .71-.3.95-1 .95-1.96 1.96-2.9 2.91-.24.24-.6.36-.9.36-.77.06-1.6 0-2.37 0-.18 0-.42.17-.66.23a16.45 16.45 0 0 1 2.97 4.7 16.27 16.27 0 0 1 1.2 5.34h2.07c.6 0 .95.3.95.77 0 .48-.36.77-.95.77h-5.05c-.35 1.3-.53 2.61-1 3.8a12.6 12.6 0 0 1-8.5 7.84c-.12 0-.18.06-.3.06-.47.12-.83-.12-.94-.54-.12-.41.11-.77.59-.95.3-.11.6-.17.83-.3 4.51-1.71 7.07-5.04 7.6-9.79v-.18h-2.02c-.6 0-.95-.3-.95-.77 0-.47.36-.77.95-.77h5.11a14.57 14.57 0 0 0-3.62-8.85L28.8 10.4c.06.06.12.18.23.3a12.4 12.4 0 0 1 2.44 4.63c.24.71.06 1.13-.42 1.3-.47.12-.83-.17-1-.83a15.31 15.31 0 0 0-2.44-4.27Zm-5.52 3.26a5.17 5.17 0 0 0-6.95.54 5.18 5.18 0 0 0 .06 7.36 5.18 5.18 0 0 0 7.36.12 5.18 5.18 0 0 0 .6-7l-.83.82c-.24.18-.18.36-.06.6.41.83.59 1.66.35 2.55A3.82 3.82 0 0 1 18 22.62a3.85 3.85 0 0 1-2.73-4.75c.65-2.08 2.85-3.32 4.8-2.5.84.36 1.32.13 1.73-.47.18 0 .24-.06.3-.12ZM21.02 18c-.54.54-1.01 1.07-1.49 1.54-.3.3-.7.3-1 0-.3-.3-.36-.65-.12-1l.35-.36 1.25-1.25c-1.13-.47-2.26-.12-2.85.77-.6.9-.48 2.08.3 2.85.77.78 1.9.9 2.85.3.83-.6 1.18-1.72.7-2.85ZM31.59 6.41h1.84c.12 0 .3 0 .35-.06l1.6-1.6h-1.3c-.53 0-.83-.3-.83-.83V2.55L31.71 4.1a.45.45 0 0 0-.12.3c-.06.7 0 1.3 0 2.01Z"/><path d="M2.97 19.77H.89c-.6 0-.95-.3-.95-.77 0-.48.36-.71.9-.77h5.1c.24-1.01.35-1.96.65-2.91.24-.77.6-1.55.9-2.26.23-.47.65-.65 1.06-.41.42.23.54.65.24 1.12a10.92 10.92 0 0 0-1.25 4.52h1.9c.71 0 1.07.23 1.13.77 0 .53-.36.77-1.13.77H4.51c.06 1.25.24 2.44.66 3.56 1.78 5.17 5.28 8.43 10.57 9.74.17.06.41.12.59.24.3.24.41.53.24.89-.18.36-.48.53-.9.47a16.6 16.6 0 0 1-5.22-2.07c-4.27-2.97-6.77-7.01-7.36-12.24 0-.17-.06-.35-.06-.53 0 0 0-.06-.06-.12Z"/><path d="M19.77 34.97v2.08c0 .6-.3.95-.77.95-.47 0-.77-.36-.77-.95V31.94c-.77-.11-1.49-.23-2.2-.41-4.8-1.25-7.95-4.22-9.44-8.97-.06-.18-.12-.3-.12-.47 0-.42.18-.66.54-.77.35-.12.71 0 .89.35l.18.54c1.3 4.5 5.52 7.95 10.15 8.13v-2.02c0-.6.3-.95.71-.95.48 0 .77.36.77.95v5.17c.95-.18 1.9-.3 2.8-.48 1.6-.35 3.02-1 4.39-1.9.12-.06.24-.18.35-.23.36-.12.66-.06.9.23.23.3.17.66-.06.9-.12.11-.3.23-.48.35a16.55 16.55 0 0 1-7.6 2.55s-.12.06-.24.06ZM31.94 27.97c-.77 0-1.07-.6-.77-1.25.54-1.07 1.07-2.2 1.55-3.33.17-.47.3-1 .41-1.48.12-.48.48-.71.9-.65.4.11.64.47.59 1a13.9 13.9 0 0 1-2.14 5.23c-.18.24-.42.42-.54.48ZM12.17 9.68c-.18-.18-.47-.36-.6-.66-.17-.35.07-.65.37-.89 1.12-.7 2.37-1.3 3.68-1.6.41-.12.7 0 .89.36.23.41.06.95-.42 1.13a12 12 0 0 0-3.44 1.54c-.06 0-.18 0-.48.12ZM10.8 10.8c0 .42-.35.72-.77.72-.41 0-.7-.36-.7-.77 0-.42.35-.72.76-.72.36 0 .72.36.72.78ZM30.64 29.57c0 .41-.36.77-.77.77-.42 0-.78-.3-.78-.71 0-.42.3-.77.72-.77.47 0 .83.3.83.7Z"/></g><defs><clipPath id="a"><path fill="#fff" d="M0 0h38v38H0z"/></clipPath></defs></svg>
<svg id="wallet" width="48" height="47" fill="none" xmlns="http://www.w3.org/2000/svg"><path d="M0 43.08V23.13c.3-.98 1.05-1.5 1.88-1.95.3-.16.6-.3.9-.38.37-.07.45-.3.45-.6V6.1c0-3.37 2.4-5.85 5.62-5.85h33.38c1.57 0 2.55.98 2.55 2.63v7.05c2.24.75 3.22 2.02 3.22 4.35v23.25c0 .45 0 .9-.15 1.34a4 4 0 0 1-4.05 3H23.25v.3c.07 1.13-.45 1.95-1.43 2.48-.82.45-1.72.83-2.55 1.05-2.4.67-4.95.9-7.42.9-2.92 0-5.85-.23-8.7-1.2C1.8 45.02.52 44.5 0 43.08Zm46.42-21.23v-7.73c0-1.72-.97-2.7-2.7-2.7H9c-1.5 0-2.85-.45-3.97-1.42-.08-.07-.16-.07-.23-.15v10.2c.15 0 .3 0 .45-.07 3.97-.83 7.95-.83 12-.16 1.57.23 3.15.68 4.57 1.5.9.68 1.43 1.43 1.43 2.63-.07 5.25 0 10.43 0 15.68v.6h20.63c1.57 0 2.62-.98 2.62-2.63v-7.73h-3.75c-.6 0-1.2-.07-1.8-.3a3.94 3.94 0 0 1-2.33-4.42 3.93 3.93 0 0 1 3.83-3.22c1.2-.08 2.55-.08 3.97-.08ZM43.2 6.62H7.57c-.82 0-1.2-.3-1.2-.82s.38-.83 1.2-.83H43.2V2.95c0-.9-.23-1.13-1.13-1.13h-33A4.09 4.09 0 0 0 4.8 6.1a4 4 0 0 0 3.99 3.69h34.05c.15 0 .22 0 .37-.08V6.63Zm-31.58 14.4c-2.24 0-4.5.16-6.67.75-.98.3-1.95.68-2.85 1.13-.68.38-.68.75 0 1.13.52.3 1.05.52 1.57.74 1.73.6 3.46.83 5.26.98 3.14.23 6.3.15 9.45-.6.9-.22 1.8-.6 2.7-1.05.75-.38.75-.83 0-1.28-.45-.3-.98-.52-1.5-.67-2.63-.9-5.25-1.05-7.95-1.13ZM1.59 25.68c0 .67.07 1.34 0 2.02-.08.6.22 1.05.75 1.28 1.12.37 2.17.9 3.37 1.12 3.15.67 6.3.67 9.52.38 1.8-.16 3.53-.53 5.26-1.2.82-.38 1.34-.83 1.2-1.88-.08-.52 0-1.13 0-1.65a29.38 29.38 0 0 1-20.1-.07Zm0 9.6c0 .74.07 1.42 0 2.1 0 .6.22.97.67 1.12.83.38 1.65.75 2.55.98 4.2 1.05 8.48.97 12.75.22 1.2-.23 2.4-.53 3.45-1.2.23-.15.6-.38.6-.67.07-.83 0-1.73 0-2.63-3.23 1.5-6.6 1.8-9.98 1.8-3.44.08-6.82-.23-10.04-1.73Zm0 4.8v2.17c0 .52.15.9.6 1.13.82.37 1.57.74 2.4.97a30.27 30.27 0 0 0 12.97.23c1.13-.23 2.25-.75 3.38-1.13.22-.08.6-.38.6-.6.07-.83 0-1.73 0-2.63a29.4 29.4 0 0 1-19.96-.14Zm20.02-9.6c-3.23 1.5-6.6 1.8-9.98 1.8-3.37 0-6.82-.3-9.97-1.8v2.32c0 .38.15.68.45.83.6.3 1.2.6 1.8.82a21 21 0 0 0 6.07.97c2.85.16 5.7 0 8.48-.75.9-.22 1.8-.67 2.63-1.05.22-.07.52-.45.52-.67v-2.48Zm24.75-2.25v-4.8h-4.13a2.36 2.36 0 0 0-2.17 2.32c0 1.2.9 2.32 2.1 2.4 1.35.15 2.77.08 4.2.08Z" fill="#CF51CE"/><path d="M38.03 14.65h-5.78c-.3 0-.6-.15-.82-.3-.15-.15-.23-.6-.08-.75.15-.22.45-.45.75-.45.6-.07 1.2 0 1.8 0h10.2c.45.08.83.38.83.83 0 .45-.38.75-.83.75h-4.2c-.67-.08-1.27-.08-1.87-.08ZM27.97 14.65h-.82c-.45 0-.75-.3-.75-.75s.3-.82.75-.82h1.72c.45 0 .75.37.75.82 0 .45-.37.75-.82.75h-.83ZM42.37 26.65a.83.83 0 0 1-.82-.82c0-.45.37-.83.82-.83.45 0 .75.38.75.75.08.52-.3.9-.75.9Z" fill="#CF51CE"/></svg>
<svg id="logo_text" width="94" height="14" fill="none" xmlns="http://www.w3.org/2000/svg"><path d="M3.49 13.95c-.44 0-.96-.07-1.54-.2l-1.83-.5.5-1.5c1.04.37 1.9.55 2.6.55.36 0 .67-.08.92-.26.24-.17.37-.4.37-.7 0-.3-.08-.52-.24-.66a2.15 2.15 0 0 0-.9-.4l-1-.25C1 9.67.32 8.85.32 7.58c0-.76.29-1.4.87-1.88a3.5 3.5 0 0 1 2.31-.75c.38 0 .83.07 1.35.2l1.83.5-.5 1.5c-1-.36-1.75-.55-2.27-.55-.35 0-.64.1-.87.28a.81.81 0 0 0-.35.68c0 .3.08.52.24.67.16.15.45.28.88.39l.99.26c.74.2 1.27.5 1.59.9.32.4.48.91.48 1.54 0 .76-.28 1.39-.85 1.9-.57.48-1.4.73-2.52.73Zm7.92 0c-.93 0-1.58-.23-1.96-.68-.38-.46-.56-1.16-.56-2.1V6.75H7.52V5.12h1.37V2.96l2.35-.47v2.63h2.04v1.63h-2.04v4.46c0 .73.3 1.1.89 1.1.36 0 .74-.12 1.15-.34l.37 1.39c-.68.4-1.43.6-2.24.6Zm5.76 0a2.6 2.6 0 0 1-2.74-2.63c0-.53.17-.95.52-1.27.36-.34.91-.6 1.67-.78l2.98-.74v-.76c0-.36-.11-.64-.34-.85a1.2 1.2 0 0 0-.89-.32c-.43 0-1.4.33-2.92.98l-.65-1.5 2.11-.77a3.75 3.75 0 0 1 4.05.54c.66.57.99 1.34.99 2.29v3.18a7.44 7.44 0 0 0 .44 2.22l-2.02.41a6.3 6.3 0 0 1-.77-1.13c-.83.76-1.64 1.13-2.43 1.13ZM18 12.3c.49 0 1.02-.27 1.6-.83V9.6l-1.85.54c-.6.17-.9.5-.9.98 0 .37.11.66.32.87.21.2.49.31.83.31Zm8.84 1.65c-.93 0-1.58-.23-1.96-.68-.37-.46-.56-1.16-.56-2.1V6.75h-1.37V5.12h1.37V2.96l2.35-.47v2.63h2.04v1.63h-2.04v4.46c0 .73.3 1.1.89 1.1.36 0 .74-.12 1.15-.34l.37 1.39c-.68.4-1.43.6-2.24.6Zm26.14-.16h-2.35V8.73c0-.74-.1-1.28-.33-1.6-.21-.35-.55-.53-1.02-.53s-.97.28-1.52.84v6.35h-2.35V8.73c0-.74-.1-1.28-.31-1.6-.21-.35-.56-.53-1.04-.53-.46 0-.96.28-1.52.84v6.35H40.2v-6.2c0-.24-.04-.59-.13-1.04a5.12 5.12 0 0 0-.31-1.19l2-.4c.26.25.52.63.8 1.12a3.48 3.48 0 0 1 2.42-1.13c1.24 0 2.09.44 2.53 1.32.28-.36.66-.67 1.17-.93a3.3 3.3 0 0 1 1.52-.39c.94 0 1.63.28 2.1.82.46.54.7 1.39.7 2.54v5.48Zm4.27.16a2.6 2.6 0 0 1-2.74-2.63c0-.53.18-.95.52-1.27.36-.34.91-.6 1.67-.78l2.98-.74v-.76c0-.36-.11-.64-.34-.85a1.2 1.2 0 0 0-.88-.32c-.44 0-1.41.33-2.93.98l-.65-1.5L57 5.31a3.75 3.75 0 0 1 4.05.54c.66.57.99 1.34.99 2.29v3.18a7.43 7.43 0 0 0 .44 2.22l-2.01.41a6.3 6.3 0 0 1-.78-1.13c-.83.76-1.64 1.13-2.43 1.13Zm.84-1.65c.48 0 1-.27 1.59-.83V9.6l-1.85.54c-.6.17-.9.5-.9.98 0 .37.11.66.32.87.21.2.49.31.84.31Zm8.4 1.49h-2.35v-6.2c0-.24-.05-.59-.13-1.04a5.12 5.12 0 0 0-.32-1.19l2-.4c.39.38.65.9.8 1.55.25-.5.57-.88.98-1.15.42-.27.87-.4 1.35-.4.27 0 .52.04.74.12l-.4 2.02h-.62c-.58 0-1.03.14-1.37.43-.32.27-.55.73-.68 1.37v4.89Zm12.22 0h-2.88L72.96 9.3v4.48H70.6V1.42l2.35-.46v7.7l2.92-3.54h2.65L75.05 9l3.66 4.8Zm4.22.16c-1.4 0-2.45-.41-3.17-1.24a4.96 4.96 0 0 1-1.05-3.3c0-1.35.36-2.43 1.09-3.23a3.86 3.86 0 0 1 3.03-1.23c2.51 0 3.76 1.3 3.76 3.91 0 .27-.03.5-.09.69h-5.37c0 .92.17 1.61.5 2.07.35.46.82.68 1.43.68.68 0 1.56-.24 2.66-.74l.65 1.5-1.96.73c-.33.1-.83.16-1.48.16ZM82.7 6.6c-.5 0-.89.18-1.17.52-.27.35-.4.78-.4 1.3h3c0-1.21-.47-1.82-1.43-1.82Zm8.5 7.35c-.93 0-1.59-.23-1.97-.68-.37-.46-.55-1.16-.55-2.1V6.75h-1.37V5.12h1.37V2.96l2.35-.47v2.63h2.03v1.63h-2.03v4.46c0 .73.3 1.1.89 1.1.35 0 .74-.12 1.14-.34l.37 1.39c-.68.4-1.42.6-2.24.6Z" fill="#54618E"/><path d="M37.5 13.79h-2.23v-2.86H30.2l-.5-1.44L35 1.94h2.52v7.25h1.18v1.74h-1.18v2.86Zm-2.23-4.6V4.4l-3.28 4.8h3.28Z" fill="#D653D2"/></svg>
</svg>