<svg width="38" height="38" fill="none" xmlns="http://www.w3.org/2000/svg"><g clip-path="url(#a)" fill="#fff"><path d="m27.61 11.52-3.27 3.26a6.82 6.82 0 0 1 1.31 5.82 6.6 6.6 0 0 1-2.79 3.98 6.73 6.73 0 0 1-8.85-.95 6.66 6.66 0 0 1-.23-8.96 6.81 6.81 0 0 1 9.44-1.07c1.06-1.07 2.13-2.14 3.2-3.27a11.3 11.3 0 0 0-6.7-2.73v2.08c0 .6-.3.95-.78.95-.47 0-.77-.36-.77-.95V4.57c-1.49.06-2.91.36-4.28.9a14.3 14.3 0 0 0-9.02 10.32c0 .12-.06.18-.06.3a.79.79 0 0 1-.9.6c-.4-.12-.64-.48-.58-.96.41-2.13 1.24-4.1 2.49-5.81 2.97-3.98 6.83-6.3 11.76-6.77.17 0 .41-.06.65-.06V1.07c0-.71.24-1.07.77-1.07.48 0 .77.36.77 1v5.12c2.97.23 5.58 1.3 7.78 3.2.36-.35.65-.71 1.07-1.13-.77-.53-1.49-1.12-2.32-1.6a13.27 13.27 0 0 0-4.15-1.66c-.12 0-.24-.06-.3-.06a.76.76 0 0 1-.53-.95c.11-.42.47-.65.95-.54a13.9 13.9 0 0 1 5.22 2.14c.77.54 1.49 1.07 2.38 1.72.06-.23.23-.41.23-.59V4.22c0-.3.12-.66.36-.84.95-1 1.96-2.01 2.97-3.02.3-.3.6-.42.95-.24.35.12.47.47.47.83v2.32h2.32c.41 0 .71.11.89.47.12.42 0 .71-.3.95-1 .95-1.96 1.96-2.9 2.91-.24.24-.6.36-.9.36-.77.06-1.6 0-2.37 0-.18 0-.42.17-.66.23a16.45 16.45 0 0 1 2.97 4.7 16.27 16.27 0 0 1 1.2 5.34h2.07c.6 0 .95.3.95.77 0 .48-.36.77-.95.77h-5.05c-.35 1.3-.53 2.61-1 3.8a12.6 12.6 0 0 1-8.5 7.84c-.12 0-.18.06-.3.06-.47.12-.83-.12-.94-.54-.12-.41.11-.77.59-.95.3-.11.6-.17.83-.3 4.51-1.71 7.07-5.04 7.6-9.79v-.18h-2.02c-.6 0-.95-.3-.95-.77 0-.47.36-.77.95-.77h5.11a14.57 14.57 0 0 0-3.62-8.85L28.8 10.4c.06.06.12.18.23.3a12.4 12.4 0 0 1 2.44 4.63c.24.71.06 1.13-.42 1.3-.47.12-.83-.17-1-.83a15.31 15.31 0 0 0-2.44-4.27Zm-5.52 3.26a5.17 5.17 0 0 0-6.95.54 5.18 5.18 0 0 0 .06 7.36 5.18 5.18 0 0 0 7.36.12 5.18 5.18 0 0 0 .6-7l-.83.82c-.24.18-.18.36-.06.6.41.83.59 1.66.35 2.55A3.82 3.82 0 0 1 18 22.62a3.85 3.85 0 0 1-2.73-4.75c.65-2.08 2.85-3.32 4.8-2.5.84.36 1.32.13 1.73-.47.18 0 .24-.06.3-.12ZM21.02 18c-.54.54-1.01 1.07-1.49 1.54-.3.3-.7.3-1 0-.3-.3-.36-.65-.12-1l.35-.36 1.25-1.25c-1.13-.47-2.26-.12-2.85.77-.6.9-.48 2.08.3 2.85.77.78 1.9.9 2.85.3.83-.6 1.18-1.72.7-2.85ZM31.59 6.41h1.84c.12 0 .3 0 .35-.06l1.6-1.6h-1.3c-.53 0-.83-.3-.83-.83V2.55L31.71 4.1a.45.45 0 0 0-.12.3c-.06.7 0 1.3 0 2.01Z"/><path d="M2.97 19.77H.89c-.6 0-.95-.3-.95-.77 0-.48.36-.71.9-.77h5.1c.24-1.01.35-1.96.65-2.91.24-.77.6-1.55.9-2.26.23-.47.65-.65 1.06-.41.42.23.54.65.24 1.12a10.92 10.92 0 0 0-1.25 4.52h1.9c.71 0 1.07.23 1.13.77 0 .53-.36.77-1.13.77H4.51c.06 1.25.24 2.44.66 3.56 1.78 5.17 5.28 8.43 10.57 9.74.17.06.41.12.59.24.3.24.41.53.24.89-.18.36-.48.53-.9.47a16.6 16.6 0 0 1-5.22-2.07c-4.27-2.97-6.77-7.01-7.36-12.24 0-.17-.06-.35-.06-.53 0 0 0-.06-.06-.12Z"/><path d="M19.77 34.97v2.08c0 .6-.3.95-.77.95-.47 0-.77-.36-.77-.95V31.94c-.77-.11-1.49-.23-2.2-.41-4.8-1.25-7.95-4.22-9.44-8.97-.06-.18-.12-.3-.12-.47 0-.42.18-.66.54-.77.35-.12.71 0 .89.35l.18.54c1.3 4.5 5.52 7.95 10.15 8.13v-2.02c0-.6.3-.95.71-.95.48 0 .77.36.77.95v5.17c.95-.18 1.9-.3 2.8-.48 1.6-.35 3.02-1 4.39-1.9.12-.06.24-.18.35-.23.36-.12.66-.06.9.23.23.3.17.66-.06.9-.12.11-.3.23-.48.35a16.55 16.55 0 0 1-7.6 2.55s-.12.06-.24.06ZM31.94 27.97c-.77 0-1.07-.6-.77-1.25.54-1.07 1.07-2.2 1.55-3.33.17-.47.3-1 .41-1.48.12-.48.48-.71.9-.65.4.11.64.47.59 1a13.9 13.9 0 0 1-2.14 5.23c-.18.24-.42.42-.54.48ZM12.17 9.68c-.18-.18-.47-.36-.6-.66-.17-.35.07-.65.37-.89 1.12-.7 2.37-1.3 3.68-1.6.41-.12.7 0 .89.36.23.41.06.95-.42 1.13a12 12 0 0 0-3.44 1.54c-.06 0-.18 0-.48.12ZM10.8 10.8c0 .42-.35.72-.77.72-.41 0-.7-.36-.7-.77 0-.42.35-.72.76-.72.36 0 .72.36.72.78ZM30.64 29.57c0 .41-.36.77-.77.77-.42 0-.78-.3-.78-.71 0-.42.3-.77.72-.77.47 0 .83.3.83.7Z"/></g><defs><clipPath id="a"><path fill="#fff" d="M0 0h38v38H0z"/></clipPath></defs></svg>