<svg width="48" height="47" fill="none" xmlns="http://www.w3.org/2000/svg"><path d="M0 43.08V23.13c.3-.98 1.05-1.5 1.88-1.95.3-.16.6-.3.9-.38.37-.07.45-.3.45-.6V6.1c0-3.37 2.4-5.85 5.62-5.85h33.38c1.57 0 2.55.98 2.55 2.63v7.05c2.24.75 3.22 2.02 3.22 4.35v23.25c0 .45 0 .9-.15 1.34a4 4 0 0 1-4.05 3H23.25v.3c.07 1.13-.45 1.95-1.43 2.48-.82.45-1.72.83-2.55 1.05-2.4.67-4.95.9-7.42.9-2.92 0-5.85-.23-8.7-1.2C1.8 45.02.52 44.5 0 43.08Zm46.42-21.23v-7.73c0-1.72-.97-2.7-2.7-2.7H9c-1.5 0-2.85-.45-3.97-1.42-.08-.07-.16-.07-.23-.15v10.2c.15 0 .3 0 .45-.07 3.97-.83 7.95-.83 12-.16 1.57.23 3.15.68 4.57 1.5.9.68 1.43 1.43 1.43 2.63-.07 5.25 0 10.43 0 15.68v.6h20.63c1.57 0 2.62-.98 2.62-2.63v-7.73h-3.75c-.6 0-1.2-.07-1.8-.3a3.94 3.94 0 0 1-2.33-4.42 3.93 3.93 0 0 1 3.83-3.22c1.2-.08 2.55-.08 3.97-.08ZM43.2 6.62H7.57c-.82 0-1.2-.3-1.2-.82s.38-.83 1.2-.83H43.2V2.95c0-.9-.23-1.13-1.13-1.13h-33A4.09 4.09 0 0 0 4.8 6.1a4 4 0 0 0 3.99 3.69h34.05c.15 0 .22 0 .37-.08V6.63Zm-31.58 14.4c-2.24 0-4.5.16-6.67.75-.98.3-1.95.68-2.85 1.13-.68.38-.68.75 0 1.13.52.3 1.05.52 1.57.74 1.73.6 3.46.83 5.26.98 3.14.23 6.3.15 9.45-.6.9-.22 1.8-.6 2.7-1.05.75-.38.75-.83 0-1.28-.45-.3-.98-.52-1.5-.67-2.63-.9-5.25-1.05-7.95-1.13ZM1.59 25.68c0 .67.07 1.34 0 2.02-.08.6.22 1.05.75 1.28 1.12.37 2.17.9 3.37 1.12 3.15.67 6.3.67 9.52.38 1.8-.16 3.53-.53 5.26-1.2.82-.38 1.34-.83 1.2-1.88-.08-.52 0-1.13 0-1.65a29.38 29.38 0 0 1-20.1-.07Zm0 9.6c0 .74.07 1.42 0 2.1 0 .6.22.97.67 1.12.83.38 1.65.75 2.55.98 4.2 1.05 8.48.97 12.75.22 1.2-.23 2.4-.53 3.45-1.2.23-.15.6-.38.6-.67.07-.83 0-1.73 0-2.63-3.23 1.5-6.6 1.8-9.98 1.8-3.44.08-6.82-.23-10.04-1.73Zm0 4.8v2.17c0 .52.15.9.6 1.13.82.37 1.57.74 2.4.97a30.27 30.27 0 0 0 12.97.23c1.13-.23 2.25-.75 3.38-1.13.22-.08.6-.38.6-.6.07-.83 0-1.73 0-2.63a29.4 29.4 0 0 1-19.96-.14Zm20.02-9.6c-3.23 1.5-6.6 1.8-9.98 1.8-3.37 0-6.82-.3-9.97-1.8v2.32c0 .38.15.68.45.83.6.3 1.2.6 1.8.82a21 21 0 0 0 6.07.97c2.85.16 5.7 0 8.48-.75.9-.22 1.8-.67 2.63-1.05.22-.07.52-.45.52-.67v-2.48Zm24.75-2.25v-4.8h-4.13a2.36 2.36 0 0 0-2.17 2.32c0 1.2.9 2.32 2.1 2.4 1.35.15 2.77.08 4.2.08Z" fill="#CF51CE"/><path d="M38.03 14.65h-5.78c-.3 0-.6-.15-.82-.3-.15-.15-.23-.6-.08-.75.15-.22.45-.45.75-.45.6-.07 1.2 0 1.8 0h10.2c.45.08.83.38.83.83 0 .45-.38.75-.83.75h-4.2c-.67-.08-1.27-.08-1.87-.08ZM27.97 14.65h-.82c-.45 0-.75-.3-.75-.75s.3-.82.75-.82h1.72c.45 0 .75.37.75.82 0 .45-.37.75-.82.75h-.83ZM42.37 26.65a.83.83 0 0 1-.82-.82c0-.45.37-.83.82-.83.45 0 .75.38.75.75.08.52-.3.9-.75.9Z" fill="#CF51CE"/></svg>